<svg width="20" height="18" viewBox="0 0 20 18" fill="none" xmlns="http://www.w3.org/2000/svg">
<path d="M1.83268 3.16659H18.166C18.866 3.16659 19.3327 2.69992 19.3327 1.99992C19.3327 1.29992 18.866 0.833252 18.166 0.833252H1.83268C1.13268 0.833252 0.666016 1.29992 0.666016 1.99992C0.666016 2.69992 1.13268 3.16659 1.83268 3.16659Z" fill="black"/>
<path d="M1.83268 10.1666H18.166C18.866 10.1666 19.3327 9.69992 19.3327 8.99992C19.3327 8.29992 18.866 7.83325 18.166 7.83325H1.83268C1.13268 7.83325 0.666016 8.29992 0.666016 8.99992C0.666016 9.69992 1.13268 10.1666 1.83268 10.1666Z" fill="black"/>
<path d="M1.83268 17.1666H18.166C18.866 17.1666 19.3327 16.6999 19.3327 15.9999C19.3327 15.2999 18.866 14.8333 18.166 14.8333H1.83268C1.13268 14.8333 0.666016 15.2999 0.666016 15.9999C0.666016 16.6999 1.13268 17.1666 1.83268 17.1666Z" fill="black"/>
</svg>
