<svg width="22" height="22" viewBox="0 0 22 22" fill="none" xmlns="http://www.w3.org/2000/svg">
<path d="M20.926 18.1421L13.7838 11L20.926 3.85776C21.6971 3.08667 21.6971 1.84526 20.926 1.07417C20.1549 0.303076 18.9135 0.303076 18.1424 1.07417L11.0002 8.21636L3.85801 1.07417C3.08691 0.303076 1.84551 0.303076 1.07441 1.07417C0.30332 1.84526 0.30332 3.08667 1.07441 3.85776L8.2166 11L1.07441 18.1421C0.30332 18.9132 0.30332 20.1546 1.07441 20.9257C1.84551 21.6968 3.08691 21.6968 3.85801 20.9257L11.0002 13.7835L18.1424 20.9257C18.9135 21.6968 20.1549 21.6968 20.926 20.9257C21.6916 20.1546 21.6916 18.9078 20.926 18.1421Z" fill="white"/>
</svg>
