<svg width="50" height="50" viewBox="0 0 50 50" fill="none" xmlns="http://www.w3.org/2000/svg">
<g clip-path="url(#clip0_2686_2015)">
<rect width="50" height="50" rx="25" fill="white"/>
<path d="M37.4703 17.817C35.7286 17.8169 34.0584 17.125 32.8269 15.8935C31.5954 14.6619 30.9035 12.9916 30.9036 11.25H26.2119V29.6217C26.211 30.4593 25.9465 31.2754 25.4559 31.9543C24.9653 32.6332 24.2735 33.1405 23.4785 33.4043C22.6835 33.668 21.8257 33.6749 21.0266 33.4238C20.2274 33.1728 19.5276 32.6766 19.0262 32.0056C18.5249 31.3346 18.2474 30.5229 18.2332 29.6854C18.2189 28.8479 18.4686 28.0272 18.9469 27.3395C19.4252 26.6519 20.1077 26.1322 20.8979 25.8542C21.688 25.5761 22.5456 25.5538 23.3491 25.7904V21.2296C21.6415 20.9994 19.9043 21.2956 18.3694 22.0786C16.8346 22.8617 15.5751 24.0943 14.7593 25.612C13.9435 27.1297 13.6101 28.8601 13.8036 30.5723C13.9971 32.2844 14.7084 33.8968 15.8424 35.194C16.9764 36.4913 18.4792 37.4117 20.1501 37.8324C21.821 38.2531 23.5805 38.1541 25.1936 37.5485C26.8067 36.9429 28.1967 35.8595 29.1779 34.4432C30.1592 33.0268 30.6849 31.3448 30.685 29.6217L30.8219 20.3354C32.7496 21.7505 35.0794 22.5119 37.4707 22.5084L37.4703 17.817Z" fill="black"/>
</g>
<defs>
<clipPath id="clip0_2686_2015">
<rect width="50" height="50" fill="white"/>
</clipPath>
</defs>
</svg>
