<svg width="33" height="33" viewBox="0 0 33 33" fill="none" xmlns="http://www.w3.org/2000/svg">
<path fill-rule="evenodd" clip-rule="evenodd" d="M16.5 33C25.6127 33 33 25.6127 33 16.5C33 7.3873 25.6127 0 16.5 0C7.3873 0 0 7.3873 0 16.5C0 25.6127 7.3873 33 16.5 33ZM10.8825 16.7278C10.2804 16.2118 9.37669 16.2703 8.84627 16.8597C8.36052 17.3994 8.34501 18.214 8.80986 18.7718L10.6498 20.9798C12.4489 23.1386 15.7133 23.2867 17.7004 21.2996L25.0528 13.9472C25.5838 13.4162 25.6063 12.5625 25.1039 12.0044C24.5984 11.4427 23.7403 11.3786 23.157 11.859L15.9753 17.7733C14.8332 18.7138 13.1804 18.6975 12.0571 17.7347L10.8825 16.7278Z" fill="white"/>
</svg>
