<svg width="56" height="56" viewBox="0 0 56 56" fill="none" xmlns="http://www.w3.org/2000/svg">
<path d="M24.6783 8.28931C25.1968 8.6053 25.4942 9.09737 25.4942 9.63911C25.4942 9.95214 25.3882 10.5419 24.6781 10.9748L26.3859 13.7765C27.8822 12.8645 28.7756 11.3177 28.7755 9.63889C28.7755 7.95112 27.8821 6.39909 26.386 5.48734C25.6759 5.05444 25.5699 4.46469 25.5699 4.15166C25.5699 3.60981 25.8673 3.11784 26.3857 2.80197L24.6784 0C23.1822 0.91175 22.2888 2.46367 22.2887 4.15155C22.2886 5.83034 23.1818 7.37712 24.6783 8.28931Z" fill="white"/>
<path d="M32.8709 8.28931C33.3895 8.6053 33.6869 9.09737 33.6869 9.63911C33.6869 9.95214 33.5809 10.5419 32.8707 10.9748L34.5785 13.7765C36.0748 12.8645 36.9682 11.3177 36.9681 9.63889C36.9681 7.95112 36.0747 6.39909 34.5786 5.48734C33.8685 5.05444 33.7625 4.46469 33.7625 4.15166C33.7625 3.60981 34.06 3.11784 34.5785 2.80197L32.8711 0C31.3749 0.911641 30.4815 2.46367 30.4813 4.15155C30.4812 5.83034 31.3744 7.37712 32.8709 8.28931Z" fill="white"/>
<path d="M16.4857 8.28931C17.0042 8.6053 17.3016 9.09737 17.3016 9.63911C17.3016 9.95214 17.1956 10.5419 16.4854 10.9748L18.1932 13.7765C19.6896 12.8645 20.583 11.3177 20.5828 9.63889C20.5828 7.95112 19.6895 6.39909 18.1933 5.48734C17.4833 5.05444 17.3773 4.46469 17.3773 4.15166C17.3773 3.60981 17.6747 3.11784 18.1931 2.80197L16.4859 0C14.9896 0.911641 14.0963 2.46367 14.0961 4.15155C14.0959 5.83034 14.9892 7.37712 16.4857 8.28931Z" fill="white"/>
<path d="M2.46794 47.6972V50.9785H5.54411V52.6692L8.87491 56H42.189L45.5198 52.6692V50.9785H48.596V47.6972H2.46794Z" fill="white"/>
<path d="M45.3017 19.7695H7.41682V31.2948C7.41682 36.4482 9.5807 41.1048 13.0467 44.4062H38.0174C40.333 42.2006 42.0675 39.3903 42.9634 36.2305H45.3015C49.8398 36.2305 53.5319 32.5383 53.5319 28C53.5319 23.4617 49.8399 19.7695 45.3017 19.7695ZM45.3017 32.9492H43.5707C43.6203 32.4042 43.6471 31.8526 43.6471 31.2948V23.0508H45.3017C48.0307 23.0508 50.2509 25.271 50.2509 28C50.2509 30.729 48.0306 32.9492 45.3017 32.9492Z" fill="white"/>
</svg>
