<svg width="120" height="60" viewBox="0 0 120 60" fill="none" xmlns="http://www.w3.org/2000/svg">
<path d="M8.98654 59.9825C6.38655 59.726 4.47401 58.6281 3.24891 56.691C2.32958 55.2627 1.71601 53.6539 1.41025 51.8645C0.593517 47.9901 0.314434 43.9352 0.572996 39.6997C1.03266 33.6748 2.53684 27.6006 5.08758 21.4772C6.31267 18.5181 7.91945 15.7868 9.90587 13.2853C11.3875 11.2948 13.38 9.50741 15.8815 7.92525C16.7455 7.36709 17.6381 6.9854 18.5575 6.77609C19.1197 6.67759 19.6327 6.73094 20.0924 6.93205C20.3428 7.0367 20.5459 7.24191 20.6998 7.54767C20.9071 8.00734 20.8065 8.23717 20.3961 8.23717C19.2244 8.13457 17.7695 8.69479 16.0293 9.91988C13.9875 11.2455 12.0749 13.2094 10.2917 15.8135C7.89483 19.4374 5.90431 23.6483 4.3242 28.4461C2.68664 33.6994 1.84529 38.5731 1.79604 43.0651C1.69138 46.6891 1.97047 49.8267 2.63329 52.4801C2.84055 53.3994 3.25097 54.4973 3.86454 55.7716C5.29279 58.427 7.51109 59.4982 10.5215 58.9893C12.3048 58.7328 13.9136 58.1192 15.348 57.1506C17.437 55.6198 19.1197 53.933 20.3961 52.0943C21.7197 50.2064 24.1432 46.1761 27.6687 40.0034C28.5388 38.6737 29.2775 37.3993 29.885 36.1783L30.1969 35.8664L30.4267 35.7187C30.5252 35.8172 30.5745 35.9198 30.5745 36.0224C30.3713 36.5313 30.1928 36.8904 30.0409 37.0977C26.9813 42.4557 24.4285 46.8697 22.3825 50.3377C20.548 53.4528 18.1511 56.0056 15.192 57.9961C13.456 59.1678 11.3875 59.8307 8.98654 59.9825Z" fill="#E1BD8F"/>
<path d="M41.2197 38.9281C40.0972 39.2359 39.459 38.8029 39.3071 37.6312C39.2517 37.0197 39.301 36.3302 39.4549 35.5627C39.5575 35.0004 39.5862 34.6413 39.537 34.4874C39.4323 34.4874 39.3277 34.5161 39.225 34.5695C39.1265 34.6187 39.0486 34.6721 38.9952 34.7254C38.946 34.7747 38.8823 34.8383 38.8064 34.9142C38.7284 34.9922 38.6669 35.0538 38.6176 35.103C37.4397 36.127 36.3685 36.8678 35.4 37.3275C35.0429 37.5306 34.6858 37.7092 34.3247 37.861C33.8158 38.0149 33.4218 37.9657 33.1427 37.7133C32.8636 37.4568 32.7733 37.071 32.8718 36.5559C32.8718 36.4574 32.9231 36.2563 33.0278 35.9485C33.3335 35.2323 33.7932 34.6434 34.4068 34.1837C35.4779 33.4183 36.5491 33.4183 37.6162 34.1837L37.6983 34.2576H37.7722C38.1272 34.5161 38.4329 34.5161 38.6915 34.2576L40.1444 32.8047C40.4009 32.6036 40.6061 32.579 40.76 32.7308C40.9119 32.8847 40.9365 33.014 40.8339 33.1166C40.7846 33.5229 40.6574 34.1324 40.4563 34.9471C40.1977 35.9218 40.0951 36.8165 40.1444 37.6312C40.1977 38.0375 40.4522 38.214 40.9078 38.1647C41.6732 38.0621 43.7171 37.2187 47.0394 35.6366C47.2405 35.6366 47.3677 35.6899 47.417 35.7925C47.5196 36.0511 47.3944 36.2809 47.0394 36.482C44.384 37.8077 42.4448 38.6223 41.2197 38.9281ZM34.7105 36.8678C35.2727 36.6606 35.8617 36.3794 36.4753 36.0224C36.8303 35.7658 37.0334 35.5606 37.0827 35.4067C37.136 35.3082 37.0745 35.222 36.8939 35.1441C36.7133 35.0681 36.4958 35.0291 36.2454 35.0291C35.835 35.1276 35.5272 35.2302 35.3261 35.3329C34.7125 35.7925 34.3021 36.2768 34.0948 36.7857C34.3513 36.995 34.5566 37.0217 34.7105 36.8678Z" fill="#E1BD8F"/>
<path d="M51.0182 40.1592C50.4538 40.6148 50.0701 40.4855 49.869 39.7734C49.7151 39.2645 49.6905 38.5504 49.7951 37.631C49.8444 37.1714 49.9695 36.6112 50.1727 35.9483C50.2753 35.6426 50.4292 35.4887 50.6324 35.4887C50.8335 35.5379 50.9361 35.7411 50.9361 36.0961C50.8376 36.5065 50.7883 36.8656 50.7883 37.1714C50.6837 37.9881 50.6837 38.5996 50.7883 39.01C51.4491 38.3431 51.9088 37.8568 52.1673 37.549C53.0867 36.6358 53.926 35.973 54.6873 35.5625C55.8139 34.8464 56.9117 34.8977 57.9788 35.7185C58.4385 36.0756 59.0254 36.5599 59.7436 37.1714C60.154 37.6803 60.9297 37.8486 62.0748 37.6721C63.2239 37.4915 64.2438 37.2617 65.1365 36.9826C66.0332 36.6994 66.889 36.3793 67.7057 36.0222C67.8575 35.9196 68.0997 35.8047 68.428 35.6775C68.7605 35.5523 69.0047 35.462 69.1586 35.4066C69.4151 35.4066 69.5936 35.4846 69.6921 35.6364C69.7455 35.7411 69.6962 35.8704 69.5444 36.0222C68.625 36.685 67.5128 37.2842 66.2118 37.8198C64.9087 38.3575 63.5543 38.7289 62.1487 38.9362C60.7471 39.1393 59.639 38.9341 58.8243 38.3205C58.0075 37.8075 57.4227 37.3992 57.0677 37.0975C56.4541 36.6871 55.7892 36.6358 55.0731 36.9415C53.9998 37.5551 53.0312 38.2939 52.1673 39.1578L51.0182 40.1592Z" fill="#E1BD8F"/>
<path d="M72.7608 44.5179C71.9933 44.8257 71.3038 44.6472 70.6923 43.9843C69.8222 43.065 69.5164 42.0184 69.7729 40.8405C70.1792 38.3452 71.2237 36.2562 72.9085 34.5694L73.8278 33.9538C73.9797 33.8553 74.2629 33.806 74.6733 33.806C75.2315 33.806 75.5618 34.0605 75.6665 34.5694C75.7158 34.9757 75.5865 35.3061 75.2807 35.5626C73.6001 36.7897 72.4776 38.8295 71.9153 41.686C71.7614 42.0964 71.786 42.5807 71.9892 43.1389C72.1964 43.5493 72.4529 43.6786 72.7608 43.5247C73.1158 43.3728 73.4708 43.1943 73.8278 42.9911C74.6425 42.4781 75.3074 41.9405 75.8225 41.3823C77.0414 40.108 78.6236 37.8855 80.5669 34.7171C80.768 34.4114 80.7167 34.1569 80.4109 33.9538C78.0141 32.0166 76.4073 29.0329 75.5926 24.9985C74.7718 20.6604 75.1268 16.2463 76.6597 11.7584C77.0701 10.6318 77.657 9.48266 78.4245 8.31092C79.3931 7.03657 80.5669 6.01669 81.9459 5.24921C82.6067 4.8942 83.3454 4.66437 84.1621 4.55971C86.0008 4.25395 87.2751 4.94345 87.9872 6.62821C88.6541 7.85535 88.9353 9.38416 88.8327 11.2167C88.6788 14.2825 88.1432 17.3442 87.2238 20.4018C86.2553 23.7734 84.6218 27.8303 82.3235 32.5748C82.2742 32.6794 82.225 32.8087 82.1757 32.9605C81.9172 33.5249 81.9172 33.8799 82.1757 34.0276L83.013 34.4873C83.7784 34.8485 84.749 35.1316 85.9269 35.3328C86.1773 35.382 86.559 35.4456 87.0679 35.5215C87.5809 35.5995 87.94 35.6365 88.1432 35.6365C88.3443 35.7411 88.4469 35.8704 88.4469 36.0223C88.4469 36.0715 88.3197 36.1495 88.0693 36.2521H87.7574C85.6171 36.2521 83.7558 35.8458 82.1757 35.029C81.9664 34.9264 81.8392 34.8485 81.7899 34.7992C81.4821 34.6474 81.2523 34.6966 81.1004 34.947C80.9465 35.1563 80.768 35.462 80.5669 35.8663C79.4444 37.6024 78.601 38.8788 78.0387 39.6996C77.1194 41.1771 75.9702 42.4001 74.5912 43.3687C74.0823 43.8284 73.4708 44.2121 72.7608 44.5179ZM80.7967 33.1904C81.1025 33.3443 81.3323 33.3197 81.4862 33.1165C81.6381 32.8107 81.7407 32.6302 81.7899 32.5748C85.2087 25.7413 87.2505 19.7944 87.9133 14.738C88.3238 12.1401 88.3484 10.1742 87.9872 8.84446C87.7841 7.82663 87.5296 7.1125 87.2238 6.70208C86.6103 5.6309 85.6909 5.1466 84.4658 5.24921C83.4973 5.29846 82.6292 5.60627 81.8638 6.16854C80.0785 7.29103 78.6749 8.97374 77.6529 11.2167C76.6843 13.4658 76.0728 16.5562 75.8225 20.4839C76.0236 23.0839 76.3027 25.0477 76.6597 26.3775C77.222 28.3146 78.0408 29.9973 79.114 31.4256C79.5737 32.0392 80.1339 32.6281 80.7967 33.1904Z" fill="#E1BD8F"/>
<path d="M98.0219 44.058C95.5696 44.058 93.7063 42.9375 92.432 40.6925C92.3766 40.4914 92.2863 40.2124 92.1611 39.8553C92.0339 39.4941 91.919 39.2376 91.8164 39.0837C90.8478 37.1465 90.7985 33.2681 91.6686 27.4443C92.4833 21.682 94.0901 16.0716 96.4869 10.609C97.4555 8.41532 98.5 6.55203 99.6225 5.01913C100.136 4.30295 100.878 3.48417 101.847 2.56483C102.458 2.05592 103.148 1.60036 103.915 1.19404C104.884 0.783626 105.828 0.783626 106.747 1.19404C107.667 1.60036 108.303 2.28575 108.66 3.25433C108.966 4.07517 109.12 5.12378 109.12 6.39813C109.07 8.28604 108.662 10.2766 107.897 12.3656C107.076 14.5613 105.672 17.3932 103.686 20.8612C101.184 25.2014 98.0465 29.8206 94.2707 34.7169C94.1168 34.8215 93.9362 35.0267 93.7289 35.3325C93.5258 35.6403 93.3719 35.8455 93.2693 35.9481C92.8629 36.4078 92.7378 36.9167 92.8917 37.4749C93.4006 39.1124 93.7556 40.1077 93.9588 40.4627C95.0792 42.3999 96.766 43.2925 99.0151 43.1386C101.16 42.8883 103.507 40.7972 106.058 36.8675C106.156 36.611 106.357 36.2765 106.665 35.866C106.719 35.8168 106.797 35.7922 106.895 35.7922C107.047 35.8414 107.125 35.9707 107.125 36.178C106.971 36.4858 106.895 36.6376 106.895 36.6376C104.19 41.4313 101.233 43.9061 98.0219 44.058ZM92.8096 35.1765C93.0168 35.078 93.376 34.6964 93.8849 34.0274C94.2953 33.42 95.071 32.3262 96.216 30.744C97.3652 29.1578 98.2456 27.9327 98.8591 27.0667C101.769 22.7286 104.067 18.8235 105.754 15.3534C107.078 12.7493 107.917 10.1965 108.274 7.69504C108.481 5.96103 108.405 4.60871 108.044 3.64013C107.736 2.7762 107.201 2.20367 106.435 1.92458C105.674 1.6414 104.884 1.75221 104.063 2.26113C103.706 2.51969 103.222 2.95473 102.61 3.56625C101.231 4.9945 100.008 6.75519 98.9412 8.84421C97.2544 12.1604 95.8508 15.8603 94.7303 19.9419C93.4498 24.4359 92.7316 29.1065 92.5798 33.9535C92.5798 34.5671 92.6557 34.9754 92.8096 35.1765Z" fill="#E1BD8F"/>
<path d="M110.799 41.6858C109.523 41.5832 108.733 40.869 108.427 39.5434C108.378 39.2376 108.353 38.8026 108.353 38.2383C108.353 36.6582 108.683 35.2812 109.346 34.1095C109.757 33.4979 110.087 33.0896 110.339 32.8864C110.75 32.5807 111.21 32.4268 111.718 32.4268C112.281 32.4268 112.664 32.6299 112.868 33.0342C113.173 33.4938 113.124 33.9781 112.72 34.487C111.801 35.4618 110.93 36.0507 110.11 36.2518C109.551 36.3565 109.219 36.7649 109.116 37.4749C109.018 38.345 109.094 39.0591 109.346 39.6173C109.652 40.3847 110.136 40.8198 110.799 40.9224C112.687 41.1255 115.24 39.6214 118.457 36.4078L119.147 35.7183C119.299 35.7183 119.401 35.7429 119.451 35.7922C119.504 35.8968 119.533 35.9728 119.533 36.022C119.533 36.1759 119.479 36.3052 119.377 36.4078C118.254 37.7334 116.812 38.9565 115.051 40.0769C113.288 41.1994 111.87 41.735 110.799 41.6858ZM109.732 35.2586C110.803 34.7456 111.517 34.2326 111.874 33.7237C111.977 33.6744 111.977 33.5985 111.874 33.4938C111.874 33.3953 111.796 33.3461 111.645 33.3461C111.337 33.2435 111.056 33.3194 110.799 33.5759C110.241 34.0315 109.884 34.5917 109.732 35.2586Z" fill="#E1BD8F"/>
<mask id="mask0_4083_1211" style="mask-type:luminance" maskUnits="userSpaceOnUse" x="34" y="15" width="13" height="20">
<path d="M34.5924 15.312H46.5786V34.618H34.5924V15.312Z" fill="white"/>
</mask>
<g mask="url(#mask0_4083_1211)">
<path d="M41.1365 43.1137C40.9313 43.1137 40.7487 42.966 40.7117 42.7546C40.172 39.6888 39.5626 36.2126 40.3198 32.9087C40.4388 32.3916 40.5906 31.8786 40.7384 31.384C40.8123 31.1378 40.8841 30.8936 40.9518 30.6535C40.0304 29.1801 39.5133 27.4461 39.4846 25.7121C39.4805 25.5561 39.4723 25.1437 39.8006 24.8954C40.1289 24.6471 40.5948 24.723 40.9846 25.0882C41.9491 25.9912 42.376 27.483 42.1564 29.1781C42.0989 29.6275 42.0025 30.0687 41.8896 30.5037C41.9163 30.5406 41.9409 30.5776 41.9676 30.6145C42.1277 30.8402 42.3267 30.9449 42.5914 30.9469C42.5955 30.9469 42.5976 30.9469 42.6017 30.9469C43.3671 30.9469 44.4075 30.1138 44.8344 29.5331C45.7824 28.2485 45.5957 26.5021 45.4007 25.5746C44.662 22.0737 41.8322 18.815 38.0173 17.0687C37.8511 16.9928 37.6664 16.8963 37.4694 16.7917C36.9667 16.5249 36.3428 16.1925 35.9181 16.2191C35.8278 16.2253 35.7559 16.2335 35.7005 16.2417C35.7785 16.3484 35.8893 16.4777 35.9735 16.5762C36.1089 16.7342 36.2628 16.9127 36.3921 17.0995C37.7157 18.9854 38.4195 20.7296 37.5495 23.1039L37.4817 23.2906C37.3299 23.7072 37.1739 24.1381 36.9585 24.5506C36.1007 26.1759 36.0063 28.6322 36.745 30.1425C36.9687 30.6042 37.3812 31.1768 38.0604 31.2979C38.2964 31.3409 38.4544 31.5646 38.4113 31.8006C38.3703 32.0366 38.1446 32.1926 37.9086 32.1515C37.0877 32.0058 36.4147 31.4436 35.9653 30.5242C35.1054 28.7615 35.2019 26.0199 36.191 24.1443C36.3798 23.7872 36.5193 23.4035 36.6671 22.9951L36.7368 22.8063C37.4817 20.7686 36.9154 19.3527 35.6821 17.5961C35.5754 17.4463 35.442 17.2903 35.3147 17.1385C34.9495 16.7096 34.6027 16.3053 34.7915 15.8621C34.9618 15.4599 35.4543 15.3798 35.8647 15.3552C36.5296 15.3101 37.2458 15.6918 37.8757 16.0262C38.0563 16.1206 38.2246 16.2109 38.3785 16.2807C42.5011 18.1666 45.4418 21.573 46.2482 25.3961C46.6381 27.2409 46.3837 28.8928 45.5321 30.0481C44.9862 30.7869 43.7221 31.8293 42.5853 31.815C42.2159 31.8109 41.8855 31.7001 41.6126 31.4866C41.5982 31.5359 41.5839 31.5831 41.5695 31.6323C41.4258 32.1125 41.2781 32.6112 41.1652 33.1016C40.447 36.2352 41.0401 39.6191 41.5654 42.6048C41.6064 42.8408 41.4484 43.0666 41.2124 43.1076C41.1878 43.1117 41.1611 43.1137 41.1365 43.1137ZM40.3506 25.6854C40.3506 25.6875 40.3506 25.6916 40.3506 25.6957C40.3731 26.9721 40.685 28.2485 41.2473 29.3997C41.2658 29.2889 41.2822 29.1781 41.2966 29.0652C41.3828 28.3962 41.4689 26.7299 40.3916 25.7203C40.3772 25.7059 40.3629 25.6957 40.3506 25.6854Z" fill="#E1BD8F"/>
</g>
<path d="M40.1293 56.0345C39.7517 56.0345 39.409 55.9524 39.1033 55.7882C38.7954 55.62 38.5554 55.386 38.3809 55.0905C38.2106 54.795 38.1265 54.4646 38.1265 54.0973C38.1265 53.7321 38.2106 53.3996 38.3809 53.1041C38.5554 52.8086 38.7954 52.5788 39.1033 52.4146C39.409 52.2463 39.7538 52.1602 40.1375 52.1602C40.433 52.1602 40.6998 52.2094 40.9419 52.3079C41.1882 52.4064 41.3975 52.5542 41.574 52.7512L41.221 53.0877C40.9358 52.7881 40.5808 52.6362 40.1539 52.6362C39.8748 52.6362 39.6204 52.7019 39.3905 52.8332C39.1648 52.9605 38.9883 53.1349 38.857 53.3586C38.7298 53.5781 38.6682 53.8244 38.6682 54.0973C38.6682 54.3723 38.7298 54.6206 38.857 54.8443C38.9883 55.0639 39.1648 55.2383 39.3905 55.3696C39.6204 55.4968 39.8748 55.5584 40.1539 55.5584C40.5746 55.5584 40.9296 55.4066 41.221 55.0987L41.574 55.4435C41.3975 55.6364 41.1882 55.7841 40.9419 55.8867C40.6957 55.9852 40.4248 56.0345 40.1293 56.0345Z" fill="#E1BD8F"/>
<path d="M47.4241 55.0413H45.4049L44.9863 55.9934H44.4281L46.1519 52.2012H46.6854L48.4091 55.9934H47.8346L47.4241 55.0413ZM47.2354 54.6144L46.4145 52.7511L45.5937 54.6144H47.2354Z" fill="#E1BD8F"/>
<path d="M54.8911 52.2012V55.9934H54.4478L52.1659 53.1615V55.9934H51.6241V52.2012H52.0674L54.3493 55.033V52.2012H54.8911Z" fill="#E1BD8F"/>
<path d="M58.6788 52.2012H60.2795C60.6776 52.2012 61.0346 52.2812 61.3465 52.4392C61.6585 52.5993 61.8986 52.823 62.0689 53.1123C62.2371 53.3975 62.3233 53.7259 62.3233 54.0973C62.3233 54.4708 62.2371 54.8012 62.0689 55.0905C61.8986 55.3757 61.6585 55.5974 61.3465 55.7554C61.0346 55.9154 60.6776 55.9934 60.2795 55.9934H58.6788V52.2012ZM60.2466 55.5255C60.5524 55.5255 60.8212 55.466 61.051 55.345C61.285 55.2259 61.4656 55.0577 61.5928 54.8443C61.718 54.6267 61.7816 54.3764 61.7816 54.0973C61.7816 53.8182 61.718 53.572 61.5928 53.3585C61.4656 53.141 61.285 52.9707 61.051 52.8496C60.8212 52.7306 60.5524 52.669 60.2466 52.669H59.2206V55.5255H60.2466Z" fill="#E1BD8F"/>
<path d="M65.8093 52.2012H66.3511V55.5255H68.4032V55.9934H65.8093V52.2012Z" fill="#E1BD8F"/>
<path d="M74.4412 55.5255V55.9934H71.6832V52.2012H74.3591V52.669H72.225V53.8346H74.1293V54.2943H72.225V55.5255H74.4412Z" fill="#E1BD8F"/>
<path d="M83.1903 56.0345C82.9051 56.0345 82.628 55.9914 82.3613 55.9032C82.0986 55.817 81.8893 55.7021 81.7374 55.5584L81.9344 55.1398C82.0822 55.267 82.2669 55.3696 82.4926 55.4517C82.7163 55.5338 82.9482 55.5748 83.1903 55.5748C83.5022 55.5748 83.7341 55.5235 83.888 55.4189C84.046 55.3101 84.1261 55.1685 84.1261 54.992C84.1261 54.8607 84.0809 54.754 83.9947 54.6719C83.9126 54.5898 83.808 54.5303 83.6828 54.4913C83.5617 54.4482 83.3873 54.399 83.1575 54.3436C82.8722 54.2738 82.6424 54.204 82.468 54.1384C82.2915 54.0686 82.1417 53.9619 82.0165 53.8182C81.8893 53.6766 81.8277 53.4858 81.8277 53.2437C81.8277 53.0426 81.879 52.8579 81.9837 52.6937C82.0924 52.5295 82.2546 52.4023 82.468 52.3079C82.6855 52.2094 82.9564 52.1602 83.2806 52.1602C83.5043 52.1602 83.7238 52.1909 83.9373 52.2504C84.1548 52.3059 84.3436 52.3879 84.5036 52.4967L84.3231 52.9235C84.163 52.825 83.9947 52.7512 83.8141 52.7019C83.6336 52.6486 83.455 52.6198 83.2806 52.6198C82.9728 52.6198 82.7429 52.6773 82.5911 52.7922C82.4372 52.903 82.3613 53.0446 82.3613 53.219C82.3613 53.3504 82.4044 53.4571 82.4926 53.5392C82.5788 53.6212 82.6855 53.6849 82.8127 53.7279C82.9441 53.7731 83.1185 53.8182 83.3381 53.8675C83.6212 53.9393 83.849 54.0111 84.0193 54.0809C84.1938 54.1466 84.3436 54.2512 84.4708 54.3928C84.596 54.5303 84.6596 54.7191 84.6596 54.9592C84.6596 55.1562 84.6042 55.3368 84.4954 55.5009C84.3846 55.6651 84.2204 55.7964 84.0029 55.8949C83.7834 55.9893 83.5125 56.0345 83.1903 56.0345Z" fill="#E1BD8F"/>
<path d="M91.3692 52.2012V55.9934H90.8275V54.3025H88.644V55.9934H88.1023V52.2012H88.644V53.8346H90.8275V52.2012H91.3692Z" fill="#E1BD8F"/>
<path d="M96.8725 56.0345C96.4888 56.0345 96.144 55.9524 95.8383 55.7882C95.5305 55.62 95.2904 55.386 95.1159 55.0905C94.9395 54.795 94.8533 54.4646 94.8533 54.0973C94.8533 53.7321 94.9395 53.3996 95.1159 53.1041C95.2904 52.8086 95.5305 52.5788 95.8383 52.4146C96.144 52.2463 96.4888 52.1602 96.8725 52.1602C97.2501 52.1602 97.5908 52.2463 97.8986 52.4146C98.2043 52.5788 98.4444 52.8086 98.6209 53.1041C98.7953 53.3996 98.8836 53.7321 98.8836 54.0973C98.8836 54.4646 98.7953 54.795 98.6209 55.0905C98.4444 55.386 98.2043 55.62 97.8986 55.7882C97.5908 55.9524 97.2501 56.0345 96.8725 56.0345ZM96.8725 55.5584C97.1516 55.5584 97.3999 55.4968 97.6195 55.3696C97.8432 55.2383 98.0176 55.0639 98.1448 54.8443C98.2761 54.6206 98.3418 54.3723 98.3418 54.0973C98.3418 53.8244 98.2761 53.5781 98.1448 53.3586C98.0176 53.1349 97.8432 52.9605 97.6195 52.8332C97.3999 52.7019 97.1516 52.6362 96.8725 52.6362C96.5934 52.6362 96.341 52.7019 96.1174 52.8332C95.8916 52.9605 95.7151 53.1349 95.5838 53.3586C95.4566 53.5781 95.395 53.8244 95.395 54.0973C95.395 54.3723 95.4566 54.6206 95.5838 54.8443C95.7151 55.0639 95.8916 55.2383 96.1174 55.3696C96.341 55.4968 96.5934 55.5584 96.8725 55.5584Z" fill="#E1BD8F"/>
<path d="M103.841 52.2012C104.333 52.2012 104.719 52.3202 104.998 52.5541C105.281 52.7901 105.425 53.1123 105.425 53.5227C105.425 53.9331 105.281 54.2574 104.998 54.4913C104.719 54.7273 104.333 54.8443 103.841 54.8443H102.905V55.9934H102.363V52.2012H103.841ZM103.833 54.3764C104.171 54.3764 104.432 54.3025 104.612 54.1548C104.793 54.007 104.883 53.7977 104.883 53.5227C104.883 53.2498 104.793 53.0384 104.612 52.8907C104.432 52.7429 104.171 52.669 103.833 52.669H102.905V54.3764H103.833Z" fill="#E1BD8F"/>
</svg>
