<svg width="60" height="71" viewBox="0 0 60 71" fill="none" xmlns="http://www.w3.org/2000/svg">
<path d="M59.3849 0H0.420366C0.187958 0 0 0.188079 0 0.420607V69.9345C0 70.1654 0.188078 70.3551 0.420366 70.3551H59.3849C59.6171 70.3551 59.8052 70.1654 59.8052 69.9345V0.420607C59.8052 0.188079 59.6171 0 59.3849 0ZM58.9646 0.840492V59.9511H0.840375V0.840492H58.9646ZM19.0876 65.6079C19.134 65.726 19.1572 65.8593 19.1572 66.0054C19.1572 66.4874 18.8927 66.8259 18.392 66.9837C18.2368 67.0355 18.0518 67.0619 17.8436 67.0619H16.0947V63.3961H17.7594C18.1657 63.3961 18.4841 63.5128 18.7064 63.7426C18.8936 63.9303 18.989 64.1712 18.989 64.458C18.989 64.754 18.9035 64.9915 18.7347 65.1661C18.8933 65.2778 19.0114 65.4256 19.0876 65.6079ZM19.6541 65.2291C19.6541 64.7037 19.8273 64.2586 20.1691 63.9062C20.5182 63.5416 20.9701 63.3567 21.5115 63.3567C22.0528 63.3567 22.5047 63.5416 22.855 63.907C23.1961 64.2593 23.3692 64.7042 23.3692 65.2291C23.3692 65.7538 23.196 66.1989 22.8542 66.5523C22.5049 66.9165 22.0529 67.1015 21.5117 67.1015C20.9701 67.1015 20.5185 66.9165 20.1686 66.5516C19.8273 66.1993 19.6541 65.7545 19.6541 65.2291ZM25.0421 66.1487C25.1864 66.2826 25.3724 66.3479 25.6097 66.3479C25.8478 66.3479 26.0359 66.2823 26.1842 66.1471C26.3537 65.9905 26.4365 65.7676 26.4365 65.4663V63.3962H27.2004V65.4567C27.2004 65.9426 27.0512 66.3421 26.7567 66.6446C26.4604 66.9477 26.0745 67.1016 25.6098 67.1016C25.1483 67.1016 24.7642 66.9477 24.4681 66.6446C24.1735 66.3421 24.0243 65.9427 24.0243 65.4567V63.3962H24.7879V65.4663C24.7879 65.7652 24.871 65.9882 25.0421 66.1487ZM27.7321 64.1453V63.3962H30.7798V64.1453H29.6377V67.0619H28.8739V64.1453H27.7321ZM31.3506 67.0621V63.3962H32.1142V67.0621H31.3506ZM35.5263 67.095C35.5913 67.1173 35.6713 67.1288 35.7642 67.1288C35.9338 67.1288 36.0893 67.0702 36.2392 66.9496L36.3984 66.8218L36.8311 67.4051L36.6826 67.5233C36.4207 67.732 36.11 67.838 35.7593 67.838C35.4782 67.838 35.213 67.7593 34.9712 67.6047C34.7636 67.4714 34.597 67.298 34.4756 67.0888C34.0036 67.0451 33.6087 66.8555 33.3018 66.5242C32.9753 66.1796 32.8093 65.7436 32.8093 65.229C32.8093 64.7036 32.9826 64.2585 33.3243 63.9061C33.6737 63.5415 34.1255 63.3566 34.6668 63.3566C35.2081 63.3566 35.66 63.5415 36.0101 63.9069C36.3512 64.2592 36.5244 64.704 36.5244 65.229C36.5244 65.6891 36.383 66.0951 36.1041 66.4359C35.8932 66.6973 35.63 66.8831 35.3199 66.9901C35.3774 67.0329 35.4459 67.0674 35.5263 67.095ZM38.1972 66.1487C38.3416 66.2826 38.5275 66.3479 38.7648 66.3479C39.0029 66.3479 39.1909 66.2823 39.3393 66.1471C39.5089 65.9905 39.5917 65.7676 39.5917 65.4663V63.3962H40.3556V65.4567C40.3556 65.9426 40.2063 66.3421 39.9118 66.6446C39.6156 66.9477 39.2296 67.1016 38.7649 67.1016C38.3035 67.1016 37.9193 66.9477 37.6232 66.6446C37.3287 66.3421 37.1794 65.9427 37.1794 65.4567V63.3962H37.9432V65.4663C37.9431 65.7649 38.0261 65.9882 38.1972 66.1487ZM43.8011 64.8499V65.6037H41.9818V66.3132H44.0187V67.0619H41.2181V63.3961H44.0187V64.1452H41.9818V64.8498H43.8011V64.8499Z" fill="#D3AF5F"/>
<path d="M34.6664 64.1104C34.3307 64.1104 34.0683 64.2148 33.8646 64.4293C33.6682 64.6373 33.5728 64.899 33.5728 65.2287C33.5728 65.5587 33.6683 65.82 33.865 66.028C34.0686 66.243 34.3309 66.3473 34.6666 66.3473C35.0022 66.3473 35.2645 66.2429 35.4685 66.028C35.6649 65.82 35.7605 65.5587 35.7605 65.2287C35.7605 64.9036 35.662 64.6346 35.468 64.4293C35.2644 64.2148 35.0023 64.1104 34.6664 64.1104Z" fill="#D3AF5F"/>
<path d="M22.3134 66.028C22.5099 65.82 22.6055 65.5587 22.6055 65.2287C22.6055 64.9036 22.507 64.6346 22.313 64.4293C22.1093 64.2148 21.8473 64.1104 21.5114 64.1104C21.1756 64.1104 20.9132 64.2148 20.7095 64.4293C20.5132 64.6373 20.4177 64.899 20.4177 65.2287C20.4177 65.5587 20.5132 65.82 20.71 66.028C20.9136 66.243 21.1759 66.3473 21.5115 66.3473C21.8471 66.3474 22.1095 66.243 22.3134 66.028Z" fill="#D3AF5F"/>
<path d="M17.8436 65.5889H16.8584V66.318H17.8831C18.065 66.318 18.2011 66.2842 18.2875 66.2179C18.3598 66.1622 18.3936 66.0851 18.3936 65.9757C18.3936 65.867 18.3579 65.785 18.2815 65.717C18.1864 65.6319 18.0392 65.5889 17.8436 65.5889Z" fill="#D3AF5F"/>
<path d="M18.1914 64.6583V64.6579C18.2146 64.6115 18.2254 64.5647 18.2254 64.5102C18.2254 64.4496 18.2175 64.397 18.2022 64.3533C18.1889 64.3172 18.1682 64.285 18.1395 64.2562C18.0647 64.1767 17.9571 64.1406 17.799 64.1406H16.8584V64.8598H17.7595C18.0575 64.8598 18.1487 64.7446 18.1914 64.6583Z" fill="#D3AF5F"/>
<path d="M7.00549 8.96241H9.52554L12.197 16.4375C13.0154 13.9652 15.0081 8.56475 15.7682 7.22311C16.9106 5.14005 18.9266 4.18209 21.3791 4.5359L21.0931 6.90384C19.565 6.66976 18.5062 7.13947 17.8512 8.3836C16.5915 10.6164 13.4398 20.4202 13.4231 20.5023L13.2548 20.6366L11.2054 20.6888L7.00549 8.96241Z" fill="white"/>
<path d="M22.7839 10.8596H21.2384V8.74268H26.8493V10.8596H25.169V18.2348H22.7839V10.8596ZM21.2384 18.5718H26.8493V20.6895H21.2384V18.5718Z" fill="white"/>
<path d="M31.636 8.9458H34.0715L37.8515 15.8659V8.9458H40.2204V20.604L40.0529 20.6892H37.7675L34.0044 13.7482V20.6892H31.636V8.9458Z" fill="white"/>
<path d="M46.9338 35.0807V33.2923H50.48V30.939H43.1558V33.2923H44.5475V37.4654H52.2248V35.0807H46.9338Z" fill="white"/>
<path d="M46.9337 27.8555H51.8719V25.5054H44.5474V30.5112H46.9337V27.8555Z" fill="white"/>
<path d="M10.8724 28.0571H7.3103V25.6724H16.836V28.0571H13.2576V37.4649H10.8724V28.0571Z" fill="white"/>
<path d="M30.0566 47.8659C30.0566 44.6222 32.6939 42.002 35.9364 42.002C39.1621 42.002 41.7995 44.6401 41.7995 47.8659C41.7995 51.1072 39.1622 53.746 35.9364 53.746C32.694 53.746 30.0566 51.1256 30.0566 47.8659ZM39.4305 47.8659C39.4305 45.9501 37.8516 44.3889 35.9365 44.3889C34.0049 44.3889 32.4255 45.9501 32.4255 47.8659C32.4255 49.7978 34.0049 51.359 35.9365 51.359C37.8514 51.359 39.4305 49.7978 39.4305 47.8659Z" fill="white"/>
<path d="M52.29 13.6748H43.1558V15.9597H52.29V13.6748Z" fill="white"/>
<path d="M13.3578 46.7655C13.0316 46.6427 12.6798 46.5514 12.312 46.4942C12.1172 46.4638 11.9178 46.447 11.7419 46.4324C11.5944 46.4204 11.442 46.4082 11.2931 46.3875C11.1243 46.3648 10.9608 46.3203 10.8076 46.2551C10.5736 46.1561 10.3626 45.9915 10.2135 45.7914C10.0669 45.5938 9.9853 45.3666 9.97789 45.1345L9.97705 45.0937C9.97705 44.3769 10.663 43.7939 11.5062 43.7939C11.9431 43.7939 12.3915 43.9789 12.6778 44.2779C12.851 44.4486 13.1605 44.7852 13.2864 45.1206L13.3053 45.1706L15.3497 44.2004L15.3886 44.1817L15.3753 44.1406C14.8877 42.6446 13.2965 41.5996 11.5063 41.5996C9.28067 41.5996 7.4698 43.167 7.4698 45.0939C7.4698 45.4546 7.53253 45.81 7.65608 46.1504C7.77677 46.4816 7.95314 46.7943 8.18053 47.0799C8.40385 47.3612 8.67342 47.6126 8.98183 47.8264C9.29345 48.0427 9.63711 48.217 10.0032 48.344C10.3582 48.4672 10.7472 48.5444 11.1923 48.5796C11.2863 48.5869 11.3815 48.5923 11.4769 48.5977L11.515 48.5999C11.7583 48.6133 11.9882 48.6256 12.2048 48.6694C12.4804 48.7242 12.7406 48.8501 12.9773 49.0431C13.2322 49.2588 13.4388 49.5466 13.5302 49.8123C13.5834 49.9677 13.6103 50.1296 13.6103 50.2936C13.6103 51.2491 12.7087 52.0267 11.6008 52.0267C11.0238 52.0267 10.4664 51.8068 10.0721 51.4245C10.0715 51.4242 10.0255 51.3773 9.95639 51.293C9.93488 51.2673 9.91516 51.2404 9.89461 51.2123C9.75182 51.0262 9.49312 50.639 9.36443 50.1355L9.34962 50.0779L7.25269 51.0734L7.2626 51.1126C7.70818 52.8722 9.53267 54.1493 11.6008 54.1493C14.0449 54.1493 16.0334 52.4197 16.0334 50.2936C16.0334 48.7646 14.9832 47.3796 13.3578 46.7655Z" fill="white"/>
<path d="M21.79 44.749V44.2447V41.8945H19.4038V46.9004H21.79V44.749Z" fill="white"/>
<path d="M25.5929 41.8945V47.328H18.0121V49.6812H19.4039V53.8543H21.7901V51.4696V50.5911V49.6812H25.5929V53.8543H27.9792V41.8945H25.5929Z" fill="white"/>
<path d="M35.5843 31.9331V34.0507H38.2699C37.6579 34.6849 36.8525 35.0543 35.9197 35.0543C33.9874 35.0543 32.4083 33.4931 32.4083 31.5612C32.4083 29.6286 33.9874 28.0666 35.9197 28.0666C37.2467 28.0666 38.4565 28.8226 39.0612 30.0308L41.1445 28.8887C40.1365 26.9238 38.1209 25.6973 35.9197 25.6973C32.6773 25.6973 30.0568 28.3177 30.0568 31.5612C30.0568 34.8025 32.6939 37.4413 35.9197 37.4413C38.1709 37.4413 40.2455 36.3117 41.1951 34.0507V31.9331H35.5843Z" fill="white"/>
<path d="M24.366 25.7993L22.184 25.8515C22.184 25.8515 19.4073 34.5413 18.0122 37.5258H19.3923H20.6005H26.0459H26.8076H27.6353H28.5659L24.366 25.7993ZM21.4418 35.4081C22.177 33.4929 22.9406 31.3613 23.3744 30.0508L25.289 35.4081H21.4418Z" fill="white"/>
<path d="M50.1773 41.9354C49.9137 41.9054 49.6503 41.8945 49.3853 41.8945H46.9337H46.197H44.5474V53.8543H46.9337V43.9945H49.8317C50.753 44.0769 51.4813 44.8819 51.4813 45.8707C51.4813 46.8223 50.8076 47.6044 49.9365 47.7366H47.3843V49.8365H49.3854H49.6802C51.7723 49.8365 53.4746 48.0575 53.4746 45.8707C53.4746 44.9201 53.1432 43.9814 52.5311 43.2522C51.9465 42.5563 51.0924 42.0402 50.1773 41.9354Z" fill="white"/>
</svg>
