<svg width="56" height="56" viewBox="0 0 56 56" fill="none" xmlns="http://www.w3.org/2000/svg">
<g clip-path="url(#clip0_2431_1864)">
<path d="M16.9194 38.9435C15.4385 38.0941 14.4379 36.4984 14.4379 34.6719C14.4379 27.1331 20.571 21 28.1098 21H33.7439L34.0092 16.625H2.08539L4.37842 54.4585C4.43097 55.3245 5.14832 56 6.01605 56H16.0828C15.0506 54.6281 14.4379 52.9234 14.4379 51.0781C14.4379 48.9509 15.7949 47.1346 17.6884 46.4489C17.0172 45.4197 16.6254 44.1926 16.6254 42.875C16.6254 41.5561 17.0181 40.3278 17.6906 39.2977C17.1556 39.1772 16.8587 39.0588 16.9194 38.9435Z" fill="white"/>
<path d="M18.0452 13.3442C18.0464 13.3442 18.0477 13.3438 18.049 13.3438H34.4531C35.3593 13.3438 36.0938 12.6093 36.0938 11.7031C36.0938 10.7969 35.3593 10.0625 34.4531 10.0625H21.0756L25.498 3.28125H31.1719C32.0781 3.28125 32.8125 2.54681 32.8125 1.64062C32.8125 0.734436 32.0781 0 31.1719 0H24.6094C24.0548 0 23.5378 0.279846 23.2354 0.744263L17.1582 10.0625H1.64062C0.734436 10.0625 0 10.7969 0 11.7031C0 12.6093 0.734436 13.3438 1.64062 13.3438H18.0392C18.0413 13.3438 18.0435 13.3442 18.0452 13.3442Z" fill="white"/>
<path d="M17.7188 34.6719C17.7188 35.5781 18.4532 36.3125 19.3594 36.3125H54.3594C55.2656 36.3125 56 35.5781 56 34.6719C56 28.9425 51.3387 24.2812 45.6094 24.2812H28.1094C22.38 24.2812 17.7188 28.9425 17.7188 34.6719Z" fill="white"/>
<path d="M23.1875 39.5938C21.3751 39.5938 19.9062 41.0626 19.9062 42.875C19.9062 44.6874 21.3751 46.1562 23.1875 46.1562H50.5312C52.3436 46.1562 53.8125 44.6874 53.8125 42.875C53.8125 41.0626 52.3436 39.5938 50.5312 39.5938H23.1875Z" fill="white"/>
<path d="M54.3594 49.4375H19.3594C18.4532 49.4375 17.7188 50.1719 17.7188 51.0781C17.7188 53.792 19.9268 56 22.6406 56H51.0781C53.792 56 56 53.792 56 51.0781C56 50.1719 55.2656 49.4375 54.3594 49.4375Z" fill="white"/>
</g>
<defs>
<clipPath id="clip0_2431_1864">
<rect width="56" height="56" fill="white"/>
</clipPath>
</defs>
</svg>
