<svg width="119" height="38" viewBox="0 0 119 38" fill="none" xmlns="http://www.w3.org/2000/svg">
<path d="M18.0109 37.465L18.0134 37.4817H12.3595C11.642 37.4817 10.8827 37.5461 10.1726 37.4745C10.153 37.0429 10.2365 36.5732 10.2512 36.132C10.2758 35.264 10.2807 34.3984 10.2783 33.5304C10.2734 31.4558 10.2365 29.3764 10.1087 27.3041C10.0719 26.7104 10.0301 26.1142 9.95393 25.5228C9.91462 25.2081 9.89496 24.8337 9.74016 24.5404C9.66153 24.383 9.55833 24.228 9.38633 24.1564C9.14553 24.0587 8.85313 24.1803 8.69341 24.3711C8.53616 24.5642 8.48455 24.8074 8.44033 25.0459C8.04964 27.0585 8.19461 29.2142 8.20444 31.2483C8.21181 33.2609 8.10615 35.4715 8.08158 37.4817C7.99558 37.4817 3.75945 37.4412 2.03207 37.465H0V0.0527246C2.55298 0.0527246 5.08877 0.169571 7.62209 0.000263024C7.69827 -0.00689083 7.88255 0.133802 7.88992 0.188648C7.95135 0.715648 7.93907 5.25119 7.94889 6.23365C7.98329 8.72081 8.01524 11.196 8.00295 13.6784C7.99312 15.7387 8.0349 17.7394 8.22164 19.7878C8.24621 20.0454 8.29535 20.3101 8.45998 20.5199C8.62461 20.7297 8.94404 20.8561 9.20204 20.7512C9.75245 20.5294 9.74507 19.485 9.79176 19.0057C9.86056 18.3237 9.89742 17.6393 9.9269 16.9549C10.0006 15.3024 10.0227 13.6474 10.0154 11.9925C10.0154 11.7517 10.0424 8.06981 9.84582 8.06981H17.721L15.1901 19.826L18.5663 37.4626H18.0085L18.0109 37.465Z" fill="white"/>
<path d="M58.0847 37.465L58.0871 37.4817H52.4332C51.7157 37.4817 50.9565 37.5461 50.2464 37.4745C50.2267 37.0429 50.3102 36.5732 50.325 36.132C50.3496 35.264 50.3545 34.3984 50.352 33.5304C50.3471 31.4558 50.3102 29.3764 50.1825 27.3041C50.1456 26.7104 50.1038 26.1142 50.0277 25.5228C49.9884 25.2081 49.9687 24.8337 49.8139 24.5404C49.7353 24.383 49.6321 24.228 49.4601 24.1564C49.2193 24.0587 48.9269 24.1803 48.7671 24.3711C48.6099 24.5642 48.5583 24.8074 48.5141 25.0459C48.1234 27.0585 48.2683 29.2142 48.2782 31.2483C48.2855 33.2609 48.1799 35.4715 48.1553 37.4817C48.0693 37.4817 43.8332 37.4412 42.1058 37.465H40.0737V0.0527246C42.6267 0.0527246 45.1625 0.167186 47.6958 0.000263024C47.772 -0.00689083 47.9563 0.133802 47.9637 0.188648C48.0251 0.715648 48.0128 5.25119 48.0226 6.23365C48.057 8.72081 48.089 11.196 48.0767 13.6784C48.0669 15.7387 48.1086 17.7394 48.2954 19.7878C48.3199 20.0454 48.3691 20.3101 48.5337 20.5199C48.6983 20.7297 49.0178 20.8561 49.2758 20.7512C49.8262 20.5294 49.8188 19.485 49.8655 19.0057C49.9343 18.3237 49.9712 17.6393 50.0006 16.9549C50.0744 15.3024 50.0965 13.6474 50.0891 11.9925C50.0891 11.7517 50.1161 8.06981 49.9196 8.06981H57.7947L55.2639 19.826L58.64 37.4626H58.0822L58.0847 37.465Z" fill="white"/>
<path d="M7.33698 37.4649H2.03198C3.75936 37.4411 5.54571 37.3981 7.33698 37.4649Z" fill="white"/>
<path d="M2.0321 37.4653C1.4129 37.4749 0.803525 37.4821 0.203979 37.4821V37.4653H2.0321Z" fill="white"/>
<path d="M28.4145 38.0015C26.3505 38.0015 24.5617 37.3863 23.0407 36.1582C21.5222 34.9301 20.3477 33.1655 19.5245 30.8668C18.6989 28.568 18.2861 25.8686 18.2861 22.7686C18.2861 19.6686 18.6989 16.9692 19.5245 14.6704C20.3501 12.3717 21.5222 10.6094 23.0407 9.37895C24.5592 8.14849 26.3505 7.53564 28.4145 7.53564C30.4785 7.53564 32.2673 8.15088 33.7883 9.37895C35.3068 10.6094 36.4789 12.3717 37.3045 14.6704C38.1301 16.9692 38.5429 19.6686 38.5429 22.7686C38.5429 25.8686 38.1301 28.568 37.3045 30.8668C36.4789 33.1655 35.3068 34.9278 33.7883 36.1582C32.2698 37.3887 30.4785 38.0015 28.4145 38.0015ZM26.955 32.5098C27.5865 32.5884 28.1295 31.9374 28.5841 30.5567C29.0386 29.1761 29.535 26.7199 30.0682 23.1907C30.6014 19.6614 30.8545 17.1743 30.8274 15.734C30.8004 14.2913 30.4712 13.5306 29.8397 13.4519C29.2082 13.3732 28.6652 14.0242 28.2081 15.4049C27.7511 16.7856 27.2572 19.2417 26.724 22.771C26.1908 26.3002 25.9353 28.7874 25.9647 30.2277C25.9918 31.6704 26.321 32.4311 26.955 32.5098Z" fill="white"/>
<path d="M68.643 38.0015C66.579 38.0015 64.7902 37.3863 63.2692 36.1582C61.7507 34.9301 60.5762 33.1655 59.7531 30.8668C58.9274 28.568 58.5146 25.8686 58.5146 22.7686C58.5146 19.6686 58.9274 16.9692 59.7531 14.6704C60.5787 12.3717 61.7507 10.6094 63.2692 9.37895C64.7878 8.14849 66.579 7.53564 68.643 7.53564C70.707 7.53564 72.4959 8.15088 74.0168 9.37895C75.5378 10.607 76.7074 12.3717 77.533 14.6704C78.3586 16.9692 78.7714 19.6686 78.7714 22.7686C78.7714 25.8686 78.3586 28.568 77.533 30.8668C76.7074 33.1655 75.5354 34.9278 74.0168 36.1582C72.4983 37.3887 70.707 38.0015 68.643 38.0015ZM67.2007 32.2999C67.8322 32.3786 68.3752 31.7276 68.8298 30.3469C69.2844 28.9662 69.7807 26.5101 70.3139 22.9808C70.8471 19.4516 71.1002 16.9644 71.0732 15.5241C71.0461 14.0814 70.7169 13.3207 70.0854 13.242C69.4539 13.1633 68.9109 13.8143 68.4538 15.195C67.9968 16.5757 67.5029 19.0319 66.9697 22.5611C66.4365 26.0904 66.181 28.5775 66.2105 30.0178C66.2375 31.4605 66.5667 32.2212 67.2007 32.2999Z" fill="white"/>
<path d="M108.872 38.0015C106.808 38.0015 105.019 37.3863 103.498 36.1582C101.979 34.9301 100.805 33.1655 99.9817 30.8668C99.1561 28.568 98.7433 25.8686 98.7433 22.7686C98.7433 19.6686 99.1561 16.9692 99.9817 14.6704C100.807 12.3717 101.979 10.6094 103.498 9.37895C105.016 8.14849 106.808 7.53564 108.872 7.53564C110.936 7.53564 112.725 8.15088 114.245 9.37895C115.766 10.607 116.936 12.3717 117.762 14.6704C118.587 16.9692 119 19.6686 119 22.7686C119 25.8686 118.587 28.568 117.762 30.8668C116.936 33.1655 115.764 34.9278 114.245 36.1582C112.727 37.3887 110.936 38.0015 108.872 38.0015ZM107.412 32.5098C108.044 32.5884 108.587 31.9374 109.044 30.5567C109.498 29.1761 109.995 26.7199 110.528 23.1907C111.061 19.6614 111.314 17.1743 111.287 15.734C111.26 14.2913 110.928 13.5306 110.297 13.4519C109.665 13.3732 109.122 14.0242 108.665 15.4049C108.211 16.7856 107.714 19.2417 107.181 22.771C106.648 26.3002 106.392 28.7874 106.422 30.2277C106.449 31.6704 106.778 32.4311 107.412 32.5098Z" fill="white"/>
<path d="M98.4976 13.1086C98.4976 14.1077 98.4386 15.1355 98.3256 16.1871C98.2126 17.2411 98.0823 18.09 97.9324 18.7315H90.6199V16.8572C90.6199 16.0726 90.5438 15.4765 90.3939 15.0663C90.244 14.6538 90.0376 14.4487 89.7771 14.4487C89.5167 14.4487 89.2611 14.6371 89.0179 15.0115C88.7722 15.3859 88.5584 15.9153 88.3717 16.5925V37.4698H80.494V10.4426C80.494 9.76055 80.354 8.44424 80.4129 7.7694C80.4129 7.75271 81.1894 7.77894 81.2778 7.77655C81.816 7.76224 82.3516 7.7527 82.8897 7.74078C83.7645 7.72409 84.6392 7.70978 85.5164 7.69547C85.8211 7.6907 86.1283 7.68594 86.433 7.68117C86.4919 7.68117 86.7401 7.71217 86.7892 7.6764C86.7991 9.32655 86.8531 11.5752 87.0055 13.2278C87.03 13.4829 87.0767 13.75 87.2463 13.9599C87.4134 14.1649 87.7303 14.2985 87.9908 14.1912C88.5412 13.9694 88.5314 12.9249 88.5805 12.4456C88.7329 10.9171 88.3053 8.72801 90.0253 7.81709C90.5978 7.51424 91.2834 7.45224 91.9468 7.42363C93.2098 7.36878 94.517 7.40932 95.7259 7.7837C96.2689 7.95063 96.957 8.19624 97.328 8.60401C97.7555 9.07378 98.0135 9.66994 98.1683 10.2566C98.4067 11.1627 98.5099 12.1786 98.5099 13.1086H98.4976Z" fill="white"/>
</svg>
