<svg width="56" height="56" viewBox="0 0 56 56" fill="none" xmlns="http://www.w3.org/2000/svg">
<g clip-path="url(#clip0_2431_1874)">
<path d="M34.7482 13.8018C34.7529 17.4873 31.7464 20.5463 28.0002 20.5463C24.2564 20.5463 21.2476 17.4897 21.2523 13.803C21.2534 13.285 21.6699 12.865 22.1868 12.865H27.0669V12.0437C27.0669 10.8607 27.8334 9.80718 28.9744 9.41985C30.2776 8.97886 31.1211 7.70719 31.0266 6.32937C30.9227 4.83137 29.7152 3.62388 28.2172 3.52121C26.4369 3.39708 24.9669 4.80081 24.9669 6.54637C24.9669 7.06203 24.5493 7.4797 24.0336 7.4797C23.5179 7.4797 23.1003 7.06203 23.1003 6.54637C23.1003 3.77356 25.4365 1.4582 28.3456 1.65805C30.7687 1.82605 32.7217 3.77788 32.8886 6.20103C33.0414 8.42352 31.6787 10.4745 29.5741 11.1885C29.1914 11.318 28.9336 11.6622 28.9336 12.0437V12.865H33.8137C34.3306 12.8651 34.7471 13.2851 34.7482 13.8018ZM55.7268 26.6722C41.1664 12.1118 42.0855 12.8651 41.5335 12.8651H37.5467C37.0315 12.8651 36.6137 13.2828 36.6144 13.7979C36.6206 18.5123 32.7803 22.4132 28.0002 22.4132C23.2228 22.4132 19.3798 18.5148 19.3861 13.7979C19.3868 13.2827 18.969 12.8651 18.4538 12.8651H14.467C13.9151 12.8651 14.8343 12.1117 0.273711 26.6722C-0.0906374 27.0366 -0.0909874 27.6276 0.273361 27.9921L8.16816 35.8869C8.53099 36.2497 9.12272 36.2518 9.48766 35.8869C11.7835 33.591 11.9003 33.5979 11.9003 33.0876V26.9059C11.9003 26.3698 12.3517 25.9397 12.8954 25.9746C13.3915 26.0064 13.767 26.4404 13.767 26.9376C13.767 27.5201 13.7775 26.0571 13.7775 51.554C13.7775 53.1102 15.0385 54.3539 16.5775 54.3539C16.5855 54.3539 39.4173 54.3189 39.4254 54.3189C40.9677 54.3189 42.223 53.0648 42.223 51.5225C42.223 25.5967 42.2335 27.9294 42.2335 26.9059C42.2335 26.3698 42.6849 25.9397 43.2286 25.9746C43.7247 26.0064 44.1002 26.4404 44.1002 26.9376V33.0876C44.1002 33.5986 44.2256 33.5996 46.5128 35.8869C46.8772 36.2512 47.4689 36.2503 47.8323 35.8869L55.7271 27.9921C56.0915 27.6276 56.0911 27.0366 55.7268 26.6722Z" fill="white"/>
</g>
<defs>
<clipPath id="clip0_2431_1874">
<rect width="56" height="56" fill="white"/>
</clipPath>
</defs>
</svg>
