<svg width="56" height="56" viewBox="0 0 56 56" fill="none" xmlns="http://www.w3.org/2000/svg">
<path d="M25.3396 8.88708C25.5788 7.93001 25.9092 6.96155 26.2738 6.23235C24.6673 5.10438 23.3798 4.8879 22.9469 5.12716C22.5367 5.34364 22.2177 6.24375 22.3088 7.61099C23.3685 7.86165 24.3825 8.29461 25.3396 8.88708Z" fill="white"/>
<path d="M29.8743 13.5471C30.8769 11.9292 32.0846 10.5847 33.4405 9.55931C33.2354 8.59084 32.8936 7.54262 32.5404 6.80203C31.6745 5.00183 30.5465 4.05615 29.8857 4.05615C29.2248 4.05615 28.0968 5.00183 27.2309 6.80203C26.8777 7.54262 26.5359 8.59084 26.3194 9.55931C27.6525 10.5733 28.8602 11.9178 29.8743 13.5471Z" fill="white"/>
<path d="M37.4511 7.61098C37.5422 6.24374 37.2232 5.33225 36.813 5.12716C36.3801 4.89929 35.0812 5.11577 33.4861 6.23235C33.8507 6.97294 34.1811 7.93001 34.4203 8.88708C35.3774 8.306 36.3914 7.86165 37.4511 7.61098Z" fill="white"/>
<path d="M37.9182 8.62503C34.5799 9.36562 31.9935 11.9292 30.3756 14.846C30.1363 15.3245 29.954 15.6208 29.7034 16.1904C28.0627 19.8706 27.8006 23.8356 29.0539 26.0802C30.6718 28.9514 39.7982 26.2169 40.0147 18.2527C40.026 17.7969 40.026 17.3868 40.026 17.0222C40.0374 14.8802 40.0374 13.8092 42.0883 11.1544C43.6492 9.0352 40.2311 8.11231 37.9182 8.62503Z" fill="white"/>
<path d="M19.7111 17.0222C19.7111 17.3868 19.7111 17.797 19.7225 18.2527C19.8136 21.3632 21.3404 24.1091 23.9154 25.7839C25.0889 26.5473 26.3764 27.0145 27.5386 27.1512C27.8234 27.1512 28.0057 27.2081 28.5184 27.174C28.3589 27.0031 28.2222 26.8208 28.1082 26.6157C26.6612 24.0521 26.9005 19.7908 28.7121 15.7461C28.883 15.3587 29.0653 14.9941 29.259 14.6295C27.5955 11.7469 25.0661 9.33144 21.8417 8.61364C19.5288 8.10092 16.1107 9.02381 17.6488 11.1544C19.6997 13.8092 19.6997 14.8802 19.7111 17.0222Z" fill="white"/>
<path d="M29.8743 28.0171C29.3615 28.188 28.7919 28.2791 28.188 28.2791C28.1424 28.2791 28.0968 28.2791 28.0513 28.2791C27.6753 32.0277 26.6043 35.5939 24.8952 38.9664C24.8838 38.9892 24.8724 39.012 24.861 39.0348C22.9241 42.8061 20.1213 46.4407 16.5095 49.8588C15.7233 50.5994 16.2474 51.9325 17.3184 51.9552C17.6488 51.9666 17.9565 51.8413 18.1843 51.6248C25.1459 45.0279 29.692 37.2688 30.5009 28.188C30.2844 28.1424 30.068 28.0855 29.8743 28.0171Z" fill="white"/>
<path d="M28.0854 40.5957C30.6604 42.8403 33.8165 43.7062 36.7902 42.977C40.4704 42.0769 43.5695 38.8981 45.5976 33.9532C38.636 37.1776 35.0812 30.7402 28.0854 40.5957Z" fill="white"/>
<path d="M23.7558 38.3854C21.3404 26.5359 15.484 30.9908 10.4138 25.237C10.2771 30.5693 11.8266 34.728 14.8346 37.0409C17.2614 38.9209 20.4972 39.3994 23.7558 38.3854Z" fill="white"/>
</svg>
