<svg width="52" height="52" viewBox="0 0 52 52" fill="none" xmlns="http://www.w3.org/2000/svg">
<path d="M28.6975 27.8118C29.9731 26.6418 30.3144 24.7081 29.4206 23.1481C28.9169 22.2787 28.1044 21.6531 27.1375 21.3931C26.4387 21.2062 25.7156 21.2306 25.0412 21.4418L21.3444 15.0231C21.125 14.6331 20.6212 14.5031 20.2312 14.7225C19.8412 14.9418 19.7112 15.4456 19.9306 15.8356L20.3694 16.5912L10.3106 27.2918L3.65624 31.1431C1.71437 32.2643 1.04812 34.7587 2.16937 36.7006L4.07874 40.0156C4.62312 40.9581 5.50062 41.6325 6.54874 41.9168C6.89812 42.0143 7.25562 42.055 7.60499 42.055C8.18187 42.055 8.75874 41.925 9.28687 41.6731L14.0481 49.9525C14.1537 50.1393 14.3325 50.2775 14.5437 50.3343C14.6087 50.3506 14.6819 50.3587 14.755 50.3587C14.8931 50.3587 15.0394 50.3181 15.1612 50.2531L16.1769 49.6681C18.1187 48.5468 18.785 46.0525 17.6637 44.1106L14.5356 38.675L16.2825 37.6593L30.55 34.2793L30.9887 35.035C31.135 35.295 31.4112 35.4412 31.6956 35.4412C31.8337 35.4412 31.9719 35.4087 32.1019 35.3356C32.4919 35.1081 32.6219 34.6125 32.4025 34.2225L28.7056 27.8037L28.6975 27.8118ZM26.715 22.9612C27.2675 23.1075 27.7306 23.465 28.015 23.9606C28.4619 24.7325 28.3644 25.675 27.8525 26.3412L25.8781 22.9125C26.1544 22.8718 26.4387 22.8881 26.715 22.9693V22.9612ZM13.13 39.4956L16.2581 44.9231C16.9325 46.0931 16.5262 47.5881 15.3644 48.2706L15.0556 48.4493L10.7087 40.9012L11.1231 40.6656L13.13 39.5037V39.4956ZM13.0244 37.6837L9.19749 39.9018L8.82374 40.1212C8.26312 40.4462 7.60499 40.5275 6.97937 40.365C6.34562 40.1943 5.82562 39.7881 5.50062 39.2275L3.59124 35.9125C2.91687 34.7425 3.32312 33.2393 4.48499 32.565L10.5381 29.0631L14.885 36.6112L13.0325 37.6837H13.0244ZM16.3881 35.9775L12.87 29.8756L11.83 28.0637L21.2225 18.07L29.7131 32.8168L16.3881 35.9775Z" fill="white"/>
<path d="M4.0625 16.25H15.4375C16.7781 16.25 17.875 15.1531 17.875 13.8125V4.0625C17.875 2.72188 16.7781 1.625 15.4375 1.625H4.0625C2.72188 1.625 1.625 2.72188 1.625 4.0625V13.8125C1.625 15.1531 2.72188 16.25 4.0625 16.25ZM3.25 4.0625C3.25 3.61563 3.61563 3.25 4.0625 3.25H15.4375C15.8844 3.25 16.25 3.61563 16.25 4.0625V13.8125C16.25 14.2594 15.8844 14.625 15.4375 14.625H4.0625C3.61563 14.625 3.25 14.2594 3.25 13.8125V4.0625Z" fill="white"/>
<path d="M6.89001 12.5205C7.02001 12.6018 7.16626 12.6424 7.31251 12.6424C7.44251 12.6424 7.56438 12.6099 7.67813 12.553L13.3656 9.66054C13.6338 9.52242 13.8125 9.23804 13.8125 8.93742C13.8125 8.63679 13.6419 8.35242 13.3656 8.21429L7.67813 5.32179C7.42626 5.19179 7.12563 5.20804 6.88188 5.35429C6.63813 5.50054 6.49188 5.76054 6.49188 6.04492V11.8218C6.49188 12.1062 6.63813 12.3662 6.88188 12.5124L6.89001 12.5205ZM8.12501 7.37742L11.2044 8.94554L8.12501 10.5137V7.38554V7.37742Z" fill="white"/>
<path d="M47.125 5.6875H34.125C32.3294 5.6875 30.875 7.14188 30.875 8.9375V17.0625C30.875 18.8581 32.3294 20.3125 34.125 20.3125H47.125C48.9206 20.3125 50.375 18.8581 50.375 17.0625V8.9375C50.375 7.14188 48.9206 5.6875 47.125 5.6875ZM47.125 7.3125C47.4825 7.3125 47.8156 7.43438 48.0837 7.62938L41.4294 13.5038C40.9744 13.91 40.2838 13.91 39.8288 13.5038L33.1744 7.62938C33.4425 7.43438 33.7756 7.3125 34.1331 7.3125H47.1331H47.125ZM47.125 18.6875H34.125C33.2313 18.6875 32.5 17.9563 32.5 17.0625V9.20563L38.7481 14.7225C39.2844 15.1938 39.9506 15.4294 40.625 15.4294C41.2994 15.4294 41.9656 15.1938 42.5019 14.7225L48.75 9.20563V17.0625C48.75 17.9563 48.0187 18.6875 47.125 18.6875Z" fill="white"/>
<path d="M41.4375 32.5C36.5056 32.5 32.5 36.5056 32.5 41.4375C32.5 46.3694 36.5056 50.375 41.4375 50.375C46.3694 50.375 50.375 46.3694 50.375 41.4375C50.375 36.5056 46.3694 32.5 41.4375 32.5ZM41.4375 48.75C37.4075 48.75 34.125 45.4675 34.125 41.4375C34.125 37.4075 37.4075 34.125 41.4375 34.125C45.4675 34.125 48.75 37.4075 48.75 41.4375C48.75 45.4675 45.4675 48.75 41.4375 48.75Z" fill="white"/>
<path d="M41.4375 38.1714C40.3325 37.1151 38.4719 37.1476 37.3994 38.2689C36.2862 39.4307 36.2862 41.3157 37.3994 42.4776L40.8525 46.0689C41.0069 46.2314 41.2181 46.3207 41.4375 46.3207C41.6569 46.3207 41.8681 46.2314 42.0225 46.0689L45.4756 42.4776C46.5887 41.3157 46.5887 39.4307 45.4756 38.2689C44.4031 37.1557 42.5425 37.1151 41.4375 38.1714ZM44.2975 41.3482L41.4375 44.3301L38.5775 41.3482C38.0575 40.812 38.0575 39.9345 38.5775 39.3901C38.8131 39.1382 39.1381 39.0001 39.4712 39.0001C39.8044 39.0001 40.1212 39.1382 40.365 39.3901C40.5031 39.5282 40.6006 39.707 40.6737 39.9182C40.7794 40.2514 41.0962 40.4789 41.4456 40.4789C41.795 40.4789 42.1119 40.2514 42.2175 39.9182C42.2825 39.707 42.3881 39.5282 42.5262 39.3901C43.0056 38.8945 43.8344 38.8864 44.3137 39.3901C44.8337 39.9264 44.8337 40.8039 44.3137 41.3482H44.2975Z" fill="white"/>
</svg>
