<svg width="168" height="53" viewBox="0 0 168 53" fill="none" xmlns="http://www.w3.org/2000/svg">
<g clip-path="url(#clip0_2648_2046)">
<path fill-rule="evenodd" clip-rule="evenodd" d="M0.828247 33.1596V0.927246H4.50502V16.5042L13.2582 0.927246H16.9564L8.64058 15.6274L17.2558 33.1596H13.4876L6.43526 19.1574L4.50502 22.348V33.1596H0.828247Z" fill="white" stroke="white" stroke-width="2.95722"/>
<path fill-rule="evenodd" clip-rule="evenodd" d="M20.5288 33.1596V0.927246H24.2037V33.1596H20.5288Z" fill="white" stroke="white" stroke-width="2.95722"/>
<path fill-rule="evenodd" clip-rule="evenodd" d="M28.4194 33.1596V0.927246H32.0943V29.9006H41.491V33.1596H28.4194Z" fill="white" stroke="white" stroke-width="2.95722"/>
<path fill-rule="evenodd" clip-rule="evenodd" d="M48.0492 25.5626C48.0492 27.0617 48.3746 28.2113 49.0273 29.0132C49.681 29.8152 50.661 30.2167 51.9656 30.2167C54.5765 30.2167 55.8829 28.6647 55.8829 25.5626V8.52496C55.8829 7.04236 55.5612 5.89459 54.915 5.08531C54.2697 4.27695 53.2869 3.87186 51.9656 3.87186C50.661 3.87186 49.681 4.27695 49.0273 5.08531C48.3746 5.89459 48.0492 7.04236 48.0492 8.52496V25.5626ZM44.4656 25.3829V8.72751C44.4656 6.19567 45.0997 4.20944 46.3698 2.77153C47.6389 1.33181 49.5048 0.61377 51.9656 0.61377C54.4506 0.61377 56.338 1.33181 57.6267 2.77153C58.9135 4.20944 59.5578 6.19567 59.5578 8.72751V25.3829C59.5578 27.8865 58.9135 29.8599 57.6267 31.306C56.338 32.7531 54.4506 33.4757 51.9656 33.4757C49.5188 33.4757 47.6585 32.7531 46.381 31.306C45.1044 29.8599 44.4656 27.8865 44.4656 25.3829Z" fill="white" stroke="white" stroke-width="2.95722"/>
<path fill-rule="evenodd" clip-rule="evenodd" d="M63.2225 25.3829V8.72751C63.2225 6.21027 63.8351 4.22768 65.0613 2.78248C66.2857 1.33637 68.1171 0.61377 70.5536 0.61377C73.0173 0.61377 74.8738 1.33637 76.1215 2.78248C77.371 4.22768 77.9948 6.21027 77.9948 8.72751V11.4692H74.5475V8.52496C74.5475 5.42289 73.2476 3.87186 70.645 3.87186C69.3657 3.87186 68.4052 4.27695 67.7655 5.08531C67.1258 5.89459 66.806 7.04236 66.806 8.52496V25.5626C66.806 27.0471 67.1258 28.193 67.7655 29.0014C68.4052 29.8107 69.3657 30.2167 70.645 30.2167C73.2466 30.2167 74.5475 28.6647 74.5475 25.5626V19.1112H71.1253V15.8969H77.9948V25.3829C77.9948 27.9001 77.371 29.8782 76.1215 31.3179C74.8738 32.7558 73.0173 33.4757 70.5536 33.4757C68.1171 33.4757 66.2857 32.7558 65.0613 31.3179C63.8351 29.8782 63.2225 27.9001 63.2225 25.3829Z" fill="white"/>
<path fill-rule="evenodd" clip-rule="evenodd" d="M63.2225 25.3829V8.72751C63.2225 6.21027 63.8351 4.22768 65.0613 2.78248C66.2857 1.33637 68.1171 0.61377 70.5536 0.61377C73.0173 0.61377 74.8738 1.33637 76.1215 2.78248C77.371 4.22768 77.9948 6.21027 77.9948 8.72751V11.4692H74.5475V8.52496C74.5475 5.42289 73.2476 3.87186 70.645 3.87186C69.3657 3.87186 68.4052 4.27695 67.7655 5.08531C67.1258 5.89459 66.806 7.04236 66.806 8.52496V25.5626C66.806 27.0471 67.1258 28.193 67.7655 29.0014C68.4052 29.8107 69.3657 30.2167 70.645 30.2167C73.2466 30.2167 74.5475 28.6647 74.5475 25.5626V19.1112H71.1253V15.8969H77.9948V25.3829C77.9948 27.9001 77.371 29.8782 76.1215 31.3179C74.8738 32.7558 73.0173 33.4757 70.5536 33.4757C68.1171 33.4757 66.2857 32.7558 65.0613 31.3179C63.8351 29.8782 63.2225 27.9001 63.2225 25.3829Z" fill="white" stroke="white" stroke-width="2.95722"/>
<path fill-rule="evenodd" clip-rule="evenodd" d="M85.6542 16.1219H88.3659C89.9278 16.1219 91.0962 15.8044 91.8683 15.1676C92.6422 14.5307 93.0292 13.3793 93.0292 11.717V8.61491C93.0292 7.13048 92.7262 6.0265 92.1219 5.30026C91.5167 4.57309 90.5479 4.20906 89.2163 4.20906H85.6542V16.1219ZM81.9793 33.1596V0.927246H89.3077C91.8496 0.927246 93.7109 1.54584 94.8904 2.7821C96.07 4.01746 96.6584 5.8568 96.6584 8.29923V10.9296C96.6584 14.5107 95.2951 16.7214 92.5704 17.5607C94.0251 17.9795 95.0769 18.755 95.7287 19.8864C96.3796 21.0177 96.7041 22.4839 96.7041 24.2813V29.293C96.7041 31.0785 96.9121 32.3667 97.3252 33.1596H93.6502C93.2372 32.2308 93.0292 30.927 93.0292 29.2483V24.191C93.0292 22.4392 92.631 21.202 91.8347 20.4822C91.0393 19.7632 89.8355 19.4028 88.2279 19.4028H85.6542V33.1596H81.9793Z" fill="white" stroke="white" stroke-width="2.95722"/>
<path fill-rule="evenodd" clip-rule="evenodd" d="M105.304 23.5851H112.458L108.837 5.11961L105.304 23.5851ZM100.024 33.1596L106.314 0.927246H111.717L118.012 33.1596H114.336L113.064 26.6635H104.713L103.47 33.1596H100.024Z" fill="white" stroke="white" stroke-width="2.95722"/>
<path fill-rule="evenodd" clip-rule="evenodd" d="M121.24 33.1596V0.927246H126.335L131.774 26.7502L137.005 0.927246H142.099V33.1596H138.653V7.2427L133.411 33.1149H129.9L124.432 7.48904V33.1596H121.24Z" fill="white" stroke="white" stroke-width="2.95722"/>
<path fill-rule="evenodd" clip-rule="evenodd" d="M146.314 33.1596V0.927246H151.409L156.847 26.7502L162.079 0.927246H167.174V33.1596H163.728V7.2427L158.485 33.1149H154.975L149.507 7.48904V33.1596H146.314Z" fill="white" stroke="white" stroke-width="2.95722"/>
<path fill-rule="evenodd" clip-rule="evenodd" d="M82.6461 41.5132H81.6856V45.0705H82.5715C82.951 45.0705 83.2298 44.9766 83.4079 44.7913C83.586 44.6043 83.6755 44.305 83.6755 43.8917V42.7166C83.6755 42.3079 83.5953 42.004 83.4303 41.8088C83.2671 41.6117 83.0069 41.5132 82.6461 41.5132Z" fill="white"/>
<path fill-rule="evenodd" clip-rule="evenodd" d="M109.624 41.4209C109.267 41.4209 109 41.5322 108.821 41.7521C108.643 41.9738 108.553 42.2877 108.553 42.6927V47.3504C108.553 47.7592 108.643 48.0739 108.821 48.2929C109 48.5119 109.267 48.6214 109.624 48.6214C110.337 48.6214 110.695 48.198 110.695 47.3504V42.6918C110.695 42.2877 110.607 41.9738 110.43 41.7521C110.253 41.5322 109.985 41.4209 109.624 41.4209Z" fill="white"/>
<path fill-rule="evenodd" clip-rule="evenodd" d="M163.596 41.5127H161.925V49.4257H160.947V41.5127H159.282V40.6168H163.596V41.5127ZM150.17 43.54H149.229V42.6924C149.229 41.8439 148.876 41.4206 148.171 41.4206C147.818 41.4206 147.554 41.5319 147.378 41.7518C147.202 41.9735 147.113 42.2873 147.113 42.6924V47.3501C147.113 47.7543 147.202 48.0681 147.378 48.2898C147.554 48.5106 147.818 48.621 148.171 48.621C148.876 48.621 149.229 48.1977 149.229 47.3501V46.2069H150.17V47.2999C150.17 47.9878 150.001 48.5289 149.661 48.9221C149.321 49.3163 148.817 49.5124 148.145 49.5124C147.477 49.5124 146.975 49.3163 146.638 48.9221C146.301 48.5289 146.133 47.9878 146.133 47.2999V42.7463C146.133 42.0583 146.301 41.5173 146.638 41.1231C146.975 40.7272 147.477 40.5301 148.145 40.5301C148.817 40.5301 149.321 40.7272 149.661 41.1231C150.001 41.5173 150.17 42.0583 150.17 42.7463V43.54ZM136.735 41.5127H134.033V44.5172H136.231V45.4022H134.033V48.5344H136.735V49.4257H133.03V40.6159H136.735V41.5127ZM123.479 47.2506C123.479 48.6803 122.841 49.4093 121.564 49.4385C121.221 49.4385 121.011 49.434 120.936 49.4257V48.5344C121.049 48.5435 121.216 48.5471 121.44 48.5471C121.789 48.5271 122.053 48.4221 122.232 48.2333C122.41 48.0453 122.499 47.7388 122.499 47.3127V40.6159H123.479V47.2506ZM111.7 47.2999C111.7 47.9851 111.523 48.5243 111.171 48.9194C110.819 49.3154 110.303 49.5124 109.624 49.5124C108.956 49.5124 108.447 49.3144 108.097 48.9194C107.748 48.5243 107.575 47.9851 107.575 47.2999V42.7463C107.575 42.0556 107.747 41.5127 108.094 41.1204C108.441 40.7253 108.951 40.5301 109.624 40.5301C110.303 40.5301 110.818 40.7253 111.17 41.1204C111.523 41.5127 111.699 42.0556 111.699 42.7463V47.2999H111.7ZM97.2263 49.4257C97.1135 49.1721 97.0557 48.8154 97.0557 48.3574V46.9742C97.0557 46.4952 96.9485 46.1585 96.7293 45.9606C96.5111 45.7653 96.1838 45.6659 95.7437 45.6659H95.0406V49.4257H94.0354V40.6168H96.0393C96.734 40.6168 97.2431 40.7847 97.5648 41.1231C97.8875 41.4598 98.0488 41.9634 98.0488 42.6313V43.3493C98.0488 44.3283 97.6767 44.9332 96.9308 45.1622C97.328 45.2772 97.6161 45.4889 97.7942 45.7981C97.9723 46.1074 98.0619 46.508 98.0619 46.9988V48.3692C98.0619 48.8573 98.1178 49.2095 98.2316 49.4257H97.2263ZM84.6807 43.8292C84.6807 45.2471 83.9786 45.9551 82.5743 45.9551H81.6856V49.4257H80.6804V40.6168H82.6517C83.3408 40.6168 83.8508 40.8038 84.1837 41.1779C84.5148 41.5538 84.6807 42.0848 84.6807 42.7727V43.8292ZM60.563 49.4257H59.5578V40.6168H60.563V49.4257ZM49.9822 49.4257H48.9779V45.4633H46.7679V49.4257H45.7627V40.6168H46.7679V44.5847H48.9779V40.6168H49.9822V49.4257ZM35.8299 48.9249C35.4867 49.3163 34.9795 49.5115 34.31 49.5115C33.6395 49.5115 33.135 49.3172 32.7965 48.9276C32.458 48.5389 32.2874 48.0006 32.2874 47.3127V46.8091H33.2301V47.362C33.2301 48.2023 33.5817 48.621 34.2848 48.621C34.9879 48.621 35.3394 48.2023 35.3394 47.362C35.3394 47.0992 35.2844 46.8538 35.1734 46.6248C35.0615 46.3958 34.9189 46.1932 34.7426 46.0162C34.5673 45.8401 34.3715 45.6677 34.1552 45.498C33.9398 45.3274 33.7262 45.1504 33.5127 44.9697C33.2982 44.7863 33.1033 44.5938 32.929 44.3904C32.7518 44.1887 32.6091 43.9442 32.4972 43.6595C32.3872 43.3758 32.3312 43.0647 32.3312 42.7298C32.3312 42.0328 32.4972 41.4936 32.832 41.1076C33.1639 40.7217 33.6609 40.5301 34.3221 40.5301C34.9879 40.5301 35.4886 40.7244 35.8224 41.1131C36.1581 41.5036 36.3251 42.0419 36.3251 42.7298V42.9689H35.3767V42.6806C35.3767 41.8403 35.0336 41.4215 34.3482 41.4215C33.6609 41.4215 33.3187 41.8375 33.3187 42.6678C33.3187 42.9342 33.3728 43.1833 33.4828 43.415C33.5947 43.6449 33.7393 43.8493 33.9174 44.0254C34.0955 44.2024 34.2922 44.3748 34.5067 44.5445C34.723 44.7142 34.9384 44.8912 35.1548 45.0728C35.3693 45.2562 35.566 45.4469 35.7441 45.6503C35.9222 45.8529 36.0668 46.0983 36.1768 46.3812C36.2887 46.6667 36.3446 46.9769 36.3446 47.3127C36.3446 47.9961 36.1721 48.5353 35.8299 48.9249ZM22.8955 47.2999C22.8955 47.9924 22.7267 48.5362 22.3882 48.9322C22.0516 49.3263 21.5452 49.5234 20.8701 49.5234C20.2052 49.5234 19.7064 49.3263 19.3707 48.9322C19.0368 48.5362 18.869 47.9924 18.869 47.2999V40.6168H19.849V47.3501C19.849 48.1977 20.2024 48.621 20.9065 48.621C21.604 48.621 21.9527 48.1977 21.9527 47.3501V40.6168H22.8955V47.2999ZM8.97444 48.9249C8.63035 49.3163 8.12401 49.5115 7.45449 49.5115C6.78497 49.5115 6.2805 49.3172 5.94107 48.9276C5.60258 48.5389 5.43287 48.0006 5.43287 47.3127V46.8091H6.37468V47.362C6.37468 48.2023 6.72622 48.621 7.42931 48.621C8.13241 48.621 8.48395 48.2023 8.48395 47.362C8.48395 47.0992 8.428 46.8538 8.31797 46.6248C8.20607 46.3958 8.0634 46.1932 7.88716 46.0162C7.71186 45.8401 7.51603 45.6677 7.2997 45.498C7.08523 45.3274 6.87076 45.1504 6.65722 44.9697C6.44368 44.7863 6.24786 44.5938 6.07349 44.3904C5.89631 44.1887 5.75364 43.9442 5.64175 43.6595C5.53171 43.3758 5.47577 43.0647 5.47577 42.7298C5.47577 42.0328 5.64175 41.4936 5.97558 41.1076C6.30847 40.7217 6.80548 40.5301 7.46755 40.5301C8.13241 40.5301 8.63315 40.7244 8.96791 41.1131C9.30267 41.5036 9.46958 42.0419 9.46958 42.7298V42.9689H8.52218V42.6806C8.52218 41.8403 8.1781 41.4215 7.49272 41.4215C6.80548 41.4215 6.46326 41.8375 6.46326 42.6678C6.46326 42.9342 6.51735 43.1833 6.62924 43.415C6.73928 43.6449 6.88381 43.8493 7.06192 44.0254C7.24002 44.2024 7.43677 44.3748 7.65124 44.5445C7.86758 44.7142 8.08298 44.8912 8.29932 45.0728C8.51472 45.2562 8.71054 45.4469 8.88865 45.6503C9.06675 45.8529 9.21129 46.0983 9.32318 46.3812C9.43322 46.6667 9.48917 46.9769 9.48917 47.3127C9.48917 47.9961 9.31666 48.5353 8.97444 48.9249ZM0.198853 36.8423V52.7997H167.784V36.8423H0.198853Z" fill="white"/>
<path fill-rule="evenodd" clip-rule="evenodd" d="M97.0557 42.7166C97.0557 42.3124 96.9737 42.0104 96.8086 41.8115C96.6445 41.6126 96.3797 41.5132 96.0142 41.5132H95.0406V44.7694H95.782C96.2081 44.7694 96.528 44.6837 96.7396 44.5094C96.9513 44.3333 97.0557 44.0195 97.0557 43.5651V42.7166Z" fill="white"/>
</g>
<defs>
<clipPath id="clip0_2648_2046">
<rect width="168" height="52.8" fill="white"/>
</clipPath>
</defs>
</svg>
