<svg width="36" height="36" viewBox="0 0 36 36" fill="none" xmlns="http://www.w3.org/2000/svg">
<g clip-path="url(#clip0_2436_2034)">
<path d="M26.9606 9.0225C25.6533 9.01386 24.3599 9.29077 23.1707 9.83388C21.9815 10.377 20.9252 11.1732 20.0756 12.1669L18.7425 13.7025L21.7181 17.1394L23.4731 15.1144C23.9039 14.6116 24.439 14.2087 25.0413 13.9338C25.6436 13.6589 26.2986 13.5185 26.9606 13.5225C27.5546 13.5131 28.1445 13.6219 28.696 13.8427C29.2475 14.0635 29.7495 14.3918 30.1729 14.8085C30.5962 15.2252 30.9325 15.722 31.162 16.2699C31.3915 16.8179 31.5097 17.406 31.5097 18C31.5097 18.594 31.3915 19.1821 31.162 19.7301C30.9325 20.278 30.5962 20.7748 30.1729 21.1915C29.7495 21.6082 29.2475 21.9365 28.696 22.1573C28.1445 22.3781 27.5546 22.4869 26.9606 22.4775C26.3007 22.4819 25.6477 22.3422 25.0473 22.0682C24.4469 21.7943 23.9136 21.3926 23.4844 20.8912C16.9673 13.3661 20.0638 16.9537 15.9244 12.1612C15.0737 11.1693 14.0171 10.3746 12.828 9.83258C11.639 9.29052 10.3461 9.01408 9.03938 9.0225C6.65839 9.0225 4.37493 9.96834 2.69132 11.6519C1.00772 13.3356 0.0618744 15.619 0.0618744 18C0.0618744 20.381 1.00772 22.6644 2.69132 24.348C4.37493 26.0317 6.65839 26.9775 9.03938 26.9775C10.3467 26.9861 11.6401 26.7092 12.8293 26.1661C14.0185 25.623 15.0748 24.8268 15.9244 23.8331L17.2575 22.2975L14.2819 18.8606L12.5269 20.8856C12.0961 21.3884 11.561 21.7913 10.9587 22.0662C10.3564 22.3411 9.70143 22.4815 9.03938 22.4775C8.44541 22.4869 7.85551 22.3781 7.30402 22.1573C6.75254 21.9365 6.25049 21.6082 5.82713 21.1915C5.40376 20.7748 5.06753 20.278 4.83803 19.7301C4.60853 19.1821 4.49034 18.594 4.49034 18C4.49034 17.406 4.60853 16.8179 4.83803 16.2699C5.06753 15.722 5.40376 15.2252 5.82713 14.8085C6.25049 14.3918 6.75254 14.0635 7.30402 13.8427C7.85551 13.6219 8.44541 13.5131 9.03938 13.5225C9.69931 13.5181 10.3523 13.6578 10.9527 13.9318C11.5531 14.2057 12.0864 14.6074 12.5156 15.1087C19.0328 22.6339 15.9362 19.0462 20.0756 23.8387C21.0511 25.0007 22.304 25.8978 23.7183 26.447C25.1325 26.9961 26.6625 27.1796 28.1665 26.9804C29.6705 26.7812 31.1 26.2058 32.3226 25.3074C33.5451 24.409 34.5212 23.2166 35.1606 21.8408C35.7999 20.4649 36.0818 18.95 35.9802 17.4363C35.8785 15.9225 35.3966 14.4589 34.5791 13.1809C33.7615 11.9028 32.6347 10.8517 31.303 10.1249C29.9713 9.39798 28.4778 9.01882 26.9606 9.0225Z" fill="white"/>
</g>
<defs>
<clipPath id="clip0_2436_2034">
<rect width="36" height="36" fill="white"/>
</clipPath>
</defs>
</svg>
