<svg width="52" height="52" viewBox="0 0 52 52" fill="none" xmlns="http://www.w3.org/2000/svg">
<g clip-path="url(#clip0_2646_1876)">
<path d="M38.152 33.614H37.273C39.7937 30.8691 41.3359 27.2054 41.3359 23.1864V17.7405C45.8811 17.3532 49.4615 13.5306 49.4615 8.88672C49.4615 3.98653 45.475 0 40.5748 0C37.6674 0 34.9963 1.40319 33.34 3.73222C31.1587 2.53327 28.6573 1.85088 26 1.85088C23.528 1.85088 21.1911 2.44197 19.121 3.48959C17.3578 1.28741 14.7137 0 11.8574 0C6.71887 0 2.53845 4.18041 2.53845 9.31887C2.53845 14.0532 6.08705 17.974 10.6641 18.5617V23.1864C10.6641 27.2054 12.2063 30.8691 14.727 33.614H13.8481C6.54834 33.614 0.609375 39.5426 0.609375 46.83V50.4707C0.609375 51.312 1.29147 51.9941 2.13281 51.9941C2.97416 51.9941 3.65625 51.312 3.65625 50.4707V46.83C3.65625 41.2227 8.22839 36.6609 13.8481 36.6609H16.8711C17.1084 41.491 21.1123 45.3477 26.0003 45.3477C28.4226 45.3477 30.705 44.4097 32.4273 42.7066C34.0661 41.0862 35.0159 38.9505 35.1278 36.6609H38.1521C43.7718 36.6609 48.3439 41.2227 48.3439 46.83V50.4766C48.3439 51.3179 49.0259 52 49.8673 52C50.7086 52 51.3907 51.3179 51.3907 50.4766V46.83C51.3906 39.5426 45.4518 33.614 38.152 33.614ZM40.5748 3.04688C43.795 3.04688 46.4147 5.66658 46.4147 8.88672C46.4147 11.9214 44.0878 14.4218 41.1247 14.6999C40.5103 11.013 38.5872 7.76618 35.8522 5.45848C36.9441 3.95261 38.6836 3.04688 40.5748 3.04688ZM37.8454 13.9579C36.9245 14.2805 35.9593 14.4459 34.9715 14.4459C31.8308 14.4459 28.9231 12.7423 27.3831 9.99974C27.1134 9.51956 26.6055 9.22228 26.0547 9.22228C25.504 9.22228 24.9961 9.51956 24.7264 9.99974C23.1863 12.7423 20.2786 14.4459 17.138 14.4459C16.1135 14.4459 15.1148 14.2683 14.1642 13.9223C15.6128 8.72249 20.3701 4.89775 26 4.89775C31.6427 4.89775 36.4086 8.74006 37.8454 13.9579ZM5.58533 9.31887C5.58533 5.86046 8.39891 3.04688 11.8574 3.04688C13.6658 3.04688 15.3491 3.8157 16.5315 5.14404C13.3928 7.6244 11.2396 11.307 10.7642 15.4937C7.82539 14.9747 5.58533 12.4043 5.58533 9.31887ZM13.7143 16.9848C14.8195 17.3217 15.967 17.4927 17.138 17.4927C20.597 17.4927 23.8463 15.9629 26.0547 13.3901C28.2631 15.963 31.5124 17.4927 34.9715 17.4927C36.1031 17.4927 37.2141 17.3326 38.2861 17.0173C38.2875 17.0943 38.2891 23.1863 38.2891 23.1863C38.2891 29.9966 32.7762 35.5371 26 35.5371C19.2237 35.5371 13.7109 29.9965 13.7109 23.1863C13.7109 23.1864 13.7125 17.0727 13.7143 16.9848ZM26.0002 42.3008C23.0358 42.3008 20.5604 40.1726 20.0182 37.3642C21.8572 38.1494 23.879 38.5842 26 38.5842C28.1207 38.5842 30.1421 38.1496 31.9808 37.3647C31.435 40.1687 28.9508 42.3008 26.0002 42.3008Z" fill="white"/>
<path d="M41.3359 42.7505C40.4946 42.7505 39.8125 43.4326 39.8125 44.2739V50.4763C39.8125 51.3177 40.4946 51.9998 41.3359 51.9998C42.1773 51.9998 42.8594 51.3177 42.8594 50.4763V44.2739C42.8594 43.4326 42.1773 42.7505 41.3359 42.7505Z" fill="white"/>
<path d="M10.664 42.7505C9.82262 42.7505 9.14052 43.4326 9.14052 44.2739V50.4763C9.14052 51.3177 9.82262 51.9998 10.664 51.9998C11.5053 51.9998 12.1874 51.3177 12.1874 50.4763V44.2739C12.1874 43.4326 11.5053 42.7505 10.664 42.7505Z" fill="white"/>
</g>
<defs>
<clipPath id="clip0_2646_1876">
<rect width="52" height="52" fill="white"/>
</clipPath>
</defs>
</svg>
