<svg width="56" height="56" viewBox="0 0 56 56" fill="none" xmlns="http://www.w3.org/2000/svg">
<path d="M7.08398 26.0027H29.3627V29.8667H7.08398V26.0027Z" fill="white"/>
<path d="M7.08398 37.4547H29.3627V41.3093H7.08398V37.4547Z" fill="white"/>
<path d="M7.08398 31.7333H29.3627V35.588H7.08398V31.7333Z" fill="white"/>
<path d="M29.3627 43.176V47.32C29.3627 49.532 27.5613 51.3333 25.3493 51.3333H11.088C8.87598 51.3333 7.08398 49.532 7.08398 47.32V43.176H29.3627Z" fill="white"/>
<path d="M48.6827 30.632C48.5053 30.4267 48.2533 30.3147 47.9827 30.3147H33.628C33.3573 30.3147 33.1053 30.4267 32.928 30.632C32.7506 30.828 32.6666 31.0893 32.6946 31.3507L34.86 50.5027C34.916 50.9787 35.3173 51.3333 35.7933 51.3333H45.8173C46.2933 51.3333 46.6947 50.9787 46.7507 50.5027L48.916 31.3507C48.944 31.0893 48.86 30.828 48.6827 30.632ZM46.452 36.484H35.1586L34.664 32.1813H46.9373L46.452 36.484Z" fill="white"/>
<path d="M29.3627 19.8893V23.688C29.3627 23.8467 29.344 23.996 29.316 24.136H7.13065C7.10265 23.996 7.08398 23.8467 7.08398 23.688V19.8893C7.08398 19.3013 7.29865 18.7413 7.69998 18.312L10.9573 14.8027H25.4893L28.7467 18.3213C29.1387 18.7413 29.3627 19.3013 29.3627 19.8893Z" fill="white"/>
<path d="M25.116 5.60001V12.0027C25.116 12.516 24.696 12.936 24.1827 12.936H12.264C11.7507 12.936 11.3307 12.516 11.3307 12.0027V5.60001C11.3307 5.08667 11.7507 4.66667 12.264 4.66667H24.1827C24.696 4.66667 25.116 5.08667 25.116 5.60001Z" fill="white"/>
</svg>
