<svg width="52" height="52" viewBox="0 0 52 52" fill="none" xmlns="http://www.w3.org/2000/svg">
<path d="M26 2.68774C34.5745 2.68774 41.5264 9.63901 41.5264 18.2136C41.5264 23.1171 39.2183 27.7087 35.2968 30.6457C35.2968 34.8676 35.2968 39.0895 35.2968 43.3113C35.2968 44.0127 34.7281 44.5814 34.0267 44.5814H32.0625V48.0423C32.0625 48.7437 31.4932 49.3125 30.7918 49.3125H21.2082C20.5068 49.3125 19.9381 48.7437 19.9381 48.0423V44.5814H17.9739C17.2719 44.5814 16.7032 44.0127 16.7032 43.3113C16.7032 39.0895 16.7032 34.8676 16.7032 30.6457C12.7817 27.7081 10.4736 23.1178 10.4736 18.2136C10.4736 9.63901 17.4255 2.68774 26 2.68774ZM29.5217 44.5814H22.4783V46.7722H29.5217V44.5814ZM8.76432 7.97152C9.95214 9.13968 8.17594 10.9466 6.98812 9.77782L3.30919 6.17136C2.12137 5.0032 3.89757 3.19628 5.08539 4.36506L8.76432 7.97152ZM45.0119 9.77782C43.8241 10.9466 42.0479 9.13968 43.2357 7.97152L46.9146 4.36506C48.1024 3.19628 49.8786 5.0032 48.6908 6.17136L45.0119 9.77782ZM45.8269 20.981C44.1557 20.981 44.1557 18.4402 45.8269 18.4402H50.139C51.8102 18.4402 51.8102 20.981 50.139 20.981H45.8269ZM1.86096 20.981C0.18978 20.981 0.18978 18.4402 1.86096 18.4402H6.1731C7.84428 18.4402 7.84428 20.981 6.1731 20.981H1.86096ZM27.2701 22.0208V25.4609C27.2701 26.1622 26.7014 26.7316 26 26.7316C25.2986 26.7316 24.7299 26.1622 24.7299 25.4609V22.0221C23.2079 21.4853 22.1841 20.0438 22.1841 18.423C22.1841 16.3225 23.9001 14.6065 26 14.6065C28.1072 14.6065 29.8159 16.3151 29.8159 18.423C29.8159 20.0438 28.7822 21.4847 27.2701 22.0208ZM26 17.1473C25.2888 17.1473 24.725 17.7118 24.725 18.423C24.725 19.1268 25.2955 19.698 26 19.698C26.71 19.698 27.275 19.133 27.275 18.423C27.275 17.7185 26.7045 17.1473 26 17.1473ZM19.244 33.0042L32.756 30.9215L32.7584 29.9966C32.759 29.5918 32.9525 29.1944 33.3118 28.9494C36.8722 26.5191 38.9856 22.5251 38.9856 18.2136C38.9856 11.0418 33.1718 5.22798 26 5.22798C18.8282 5.22798 13.0144 11.0418 13.0144 18.2136C13.0144 22.4974 15.1002 26.4687 18.6237 28.9045C18.9953 29.1263 19.244 29.5322 19.244 29.9966V33.0042ZM32.756 33.4918L19.244 35.5751V37.4901L32.756 35.4075V33.4918ZM32.756 37.9778L19.244 40.0611V42.0412C23.7478 42.0412 28.2522 42.0412 32.756 42.0412V37.9778Z" fill="white"/>
</svg>
