<svg width="56" height="56" viewBox="0 0 56 56" fill="none" xmlns="http://www.w3.org/2000/svg">
<path d="M45.8265 36.5422C44.9868 37.382 43.9284 37.9478 42.7762 38.1853C42.8347 37.7947 42.8644 37.3968 42.8644 36.9953C42.8644 34.8617 42.0283 32.8504 40.5098 31.332C38.992 29.8136 36.9802 28.9775 34.8466 28.9775H32.394L39.5455 21.826C39.5707 21.8008 39.5945 21.7736 39.6158 21.7459L45.8265 27.9566C48.1936 30.324 48.1936 34.1751 45.8265 36.5422Z" fill="white"/>
<path d="M38.4709 20.6013C38.4426 20.6226 38.4163 20.6458 38.3905 20.6716L30.0846 28.9775H29.6764L23.6743 22.9754C22.5333 21.8344 21.9044 20.3098 21.9044 18.6827C21.9044 17.0556 22.5333 15.5313 23.6743 14.39C24.8153 13.249 26.3405 12.6202 27.967 12.6202C29.5941 12.6202 31.1189 13.249 32.2599 14.39L38.4709 20.6013Z" fill="white"/>
<path d="M41.2314 36.9953C41.2314 40.5157 38.3673 43.3798 34.8469 43.3798H25.6332V30.7588C25.6332 30.7082 25.6287 30.6589 25.6192 30.6107H34.8466C38.3673 30.6104 41.2314 33.4746 41.2314 36.9953Z" fill="white"/>
<path d="M24.0139 30.6104C24.0044 30.6586 23.9999 30.7082 23.9999 30.7586V43.3796H14.7865C11.2661 43.3796 8.40198 40.5154 8.40198 36.995C8.40198 33.4746 11.2661 30.6104 14.7865 30.6104H24.0139Z" fill="white"/>
</svg>
