<svg width="52" height="52" viewBox="0 0 52 52" fill="none" xmlns="http://www.w3.org/2000/svg">
<g clip-path="url(#clip0_2646_1881)">
<path d="M33.3758 18.5554C32.7806 17.9604 31.816 17.9603 31.2209 18.5554L29.9587 19.8176C29.9457 19.8113 29.9331 19.8047 29.92 19.7985C28.1851 18.99 26.1101 19.3565 24.7563 20.7102C22.974 22.4926 22.974 25.3926 24.7563 27.175C25.0441 27.4628 25.2026 27.8454 25.2026 28.2524C25.2026 28.6594 25.0441 29.042 24.7563 29.3298C24.3222 29.7638 23.6742 29.8953 23.1054 29.6649C22.4188 29.3868 22.0155 28.6351 21.9993 27.6022C21.9861 26.7688 21.3066 26.1025 20.4762 26.1025C20.4681 26.1025 20.4598 26.1025 20.4516 26.1027C19.6102 26.116 18.9389 26.8089 18.9522 27.6503C18.9673 28.608 19.1749 29.482 19.5467 30.2296L18.2917 31.4846C17.6967 32.0796 17.6967 33.0444 18.2917 33.6394C18.8867 34.2345 19.8516 34.2345 20.4466 33.6394L21.7087 32.3773C23.49 33.2242 25.557 32.839 26.9112 31.4845C27.7747 30.6211 28.2502 29.4731 28.2502 28.2522C28.2502 27.0312 27.7747 25.8832 26.9112 25.0199C26.3171 24.4258 26.3171 23.4591 26.9112 22.865C27.3629 22.4135 28.0545 22.2912 28.6328 22.5606C29.3879 22.9125 29.7586 23.8301 29.6502 25.0783C29.5772 25.9167 30.1977 26.6555 31.0361 26.7284C31.8744 26.8015 32.6133 26.1809 32.6862 25.3425C32.7972 24.0666 32.596 22.9118 32.1244 21.9615L33.3758 20.7102C33.9708 20.1152 33.9708 19.1505 33.3758 18.5554Z" fill="white"/>
<path d="M47.441 28.2629L50.6631 25.0406C52.4457 23.2584 52.4457 20.3582 50.6632 18.5759L44.1985 12.1112C43.6035 11.5161 42.6387 11.5161 42.0436 12.1112C41.4496 12.7052 40.4829 12.7052 39.8888 12.1112C39.2947 11.517 39.2947 10.5504 39.8888 9.95631C40.4838 9.36126 40.4838 8.39651 39.8888 7.80146C39.1532 7.06584 34.335 2.24772 33.424 1.3367C31.6417 -0.445618 28.7416 -0.445517 26.9594 1.3367L1.33666 26.9595C-0.445555 28.7418 -0.445555 31.6418 1.33666 33.4242L3.49141 35.5789L3.49162 35.579L3.49182 35.5791L7.80142 39.8887C8.39597 40.4834 9.36132 40.4837 9.95627 39.8887C10.5517 39.2931 11.5155 39.2931 12.1111 39.8887C12.7066 40.4843 12.7068 41.448 12.1111 42.0436C11.5166 42.6381 11.5161 43.6035 12.1111 44.1984L16.4204 48.5077C16.4206 48.5078 16.4207 48.508 16.4209 48.5082C16.4211 48.5084 16.4212 48.5085 16.4214 48.5086L18.5758 50.663C20.3579 52.4452 23.2581 52.4453 25.0404 50.663L25.2572 50.4462L49.1626 38.4938C51.9572 37.0964 52.5592 33.3812 50.3506 31.1728L47.441 28.2629ZM22.8857 48.5084C22.2915 49.1026 21.3249 49.1025 20.7308 48.5084L19.6534 47.4309L22.8857 44.1986C23.4807 43.6036 23.4807 42.6388 22.8857 42.0438C22.2907 41.4487 21.3259 41.4487 20.7308 42.0438L17.4985 45.2761L15.1605 42.9381C15.9572 41.2743 15.7 39.1678 14.2661 37.734C12.8329 36.3007 10.7266 36.0425 9.06191 36.8395L6.72395 34.5015L9.95627 31.2692C10.5513 30.6741 10.5513 29.7094 9.95627 29.1144C9.36132 28.5193 8.39648 28.5193 7.80142 29.1144L4.56909 32.3467L3.49162 31.2693C2.89758 30.6752 2.89758 29.7085 3.49162 29.1145L29.1143 3.49166C29.7085 2.89762 30.6751 2.89751 31.2692 3.49166L32.3466 4.56913L29.1143 7.80146C28.5193 8.39651 28.5193 9.36126 29.1143 9.95631C29.7093 10.5514 30.6742 10.5514 31.2692 9.95631L34.5015 6.72398L36.8395 9.06205C36.0436 10.7246 36.2989 12.8312 37.7339 14.2661C39.1669 15.6991 41.2729 15.9575 42.938 15.1606L45.2761 17.4986L42.0437 20.7309C41.4487 21.3258 41.4487 22.2907 42.0437 22.8857C42.6388 23.4808 43.6035 23.4808 44.1986 22.8857L47.4309 19.6535L48.5084 20.7309C49.1024 21.325 49.1024 22.2917 48.5084 22.8857C48.0491 23.345 23.927 47.4671 22.8857 48.5084ZM47.8 35.7679L32.0717 43.6322L45.2861 30.4178L48.1961 33.3277C48.9325 34.0641 48.7311 35.3024 47.8 35.7679Z" fill="white"/>
<path d="M39.9093 25.02C39.3143 24.425 38.3494 24.425 37.7544 25.02L33.4447 29.3297C32.8497 29.9248 32.8497 30.8895 33.4447 31.4846C34.0397 32.0796 35.0046 32.0796 35.5996 31.4846L39.9093 27.1749C40.5043 26.5798 40.5043 25.6151 39.9093 25.02Z" fill="white"/>
<path d="M31.2898 33.6397C30.6947 33.0446 29.7299 33.0446 29.1349 33.6397L24.8251 37.9495C24.2301 38.5445 24.2301 39.5093 24.8251 40.1043C25.4201 40.6994 26.385 40.6994 26.98 40.1043L31.2898 35.7945C31.8848 35.1994 31.8848 34.2347 31.2898 33.6397Z" fill="white"/>
<path d="M26.9799 12.0908C26.3849 11.4958 25.4201 11.4958 24.825 12.0908L20.5153 16.4005C19.9203 16.9956 19.9203 17.9603 20.5153 18.5554C21.1103 19.1504 22.0752 19.1505 22.6702 18.5554L26.9799 14.2457C27.5749 13.6506 27.5749 12.6859 26.9799 12.0908Z" fill="white"/>
<path d="M18.3604 20.7105C17.7654 20.1154 16.8006 20.1154 16.2055 20.7105L11.8957 25.0203C11.3007 25.6153 11.3007 26.5801 11.8957 27.1751C12.4907 27.7702 13.4556 27.7702 14.0506 27.1751L18.3604 22.8652C18.9554 22.2702 18.9554 21.3055 18.3604 20.7105Z" fill="white"/>
</g>
<defs>
<clipPath id="clip0_2646_1881">
<rect width="52" height="52" fill="white"/>
</clipPath>
</defs>
</svg>
