<svg width="52" height="52" viewBox="0 0 52 52" fill="none" xmlns="http://www.w3.org/2000/svg">
<path d="M51.1333 48.1V14.3H40.7333V48.1H38.1333V21.2334H27.7333V48.1H25.1333V28.1667H14.7333V48.1H12.1333V35.9667H1.73333V48.1H0.866667C0.388267 48.1 0 48.4874 0 48.9667C0 49.446 0.388267 49.8334 0.866667 49.8334H1.73333H12.1333H14.7333H25.1333H27.7333H38.1333H40.7333H51.1333C51.6117 49.8334 52 49.446 52 48.9667C52 48.4874 51.6117 48.1 51.1333 48.1ZM3.46667 48.1V37.7H10.4V48.1H3.46667ZM16.4667 48.1V29.9H23.4V48.1H16.4667ZM29.4667 48.1V22.9667H36.4V48.1H29.4667ZM42.4667 48.1V16.0334H49.4V48.1H42.4667Z" fill="white"/>
<path d="M6.95935 24.1193C7.10582 24.1193 7.25575 24.082 7.39182 24.0032L38.825 5.85518L36.8576 10.1798C36.6592 10.6158 36.8516 11.1297 37.2875 11.3273C37.4036 11.381 37.5258 11.4053 37.6463 11.4053C37.9756 11.4053 38.2902 11.2164 38.4358 10.8974L41.5229 4.11145C41.5324 4.08978 41.5307 4.06638 41.5385 4.04385C41.555 3.99791 41.568 3.95371 41.5766 3.90518C41.581 3.88091 41.5948 3.86098 41.5966 3.83585C41.5974 3.82545 41.5931 3.81678 41.594 3.80638C41.5957 3.77345 41.5922 3.74311 41.5905 3.71018C41.5879 3.66251 41.5801 3.61745 41.5697 3.56978C41.5628 3.53685 41.561 3.50305 41.5498 3.47098C41.5394 3.43978 41.5212 3.41378 41.5073 3.38345C41.496 3.36351 41.496 3.34011 41.4839 3.31931C41.4718 3.29851 41.451 3.28638 41.4371 3.26645C41.4189 3.23958 41.405 3.21098 41.3834 3.18671C41.3608 3.16071 41.3322 3.14251 41.3062 3.11911C41.2707 3.08705 41.2352 3.05758 41.1953 3.03158C41.1684 3.01425 41.1442 2.99518 41.1147 2.98045C41.1052 2.97611 41.1 2.96745 41.0904 2.96311C41.0688 2.95358 41.0454 2.95531 41.0237 2.94751C40.976 2.93018 40.9292 2.91805 40.8798 2.90938C40.8573 2.90505 40.8391 2.89205 40.8157 2.89031L33.3953 2.17098C32.9143 2.12245 32.4948 2.47431 32.4489 2.94925C32.4021 3.42591 32.7514 3.84971 33.2272 3.89565L37.9557 4.35411L6.52515 22.5021C6.11002 22.7413 5.96875 23.2717 6.20795 23.686C6.36829 23.9642 6.65949 24.1193 6.95935 24.1193Z" fill="white"/>
</svg>
