<svg width="52" height="52" viewBox="0 0 52 52" fill="none" xmlns="http://www.w3.org/2000/svg">
<g clip-path="url(#clip0_2648_1946)">
<path d="M2.054 11.9882C0.730167 10.6644 0 8.89856 0 7.02223C0 5.14589 0.730167 3.38006 2.054 2.05623C4.69517 -0.597939 9.334 -0.600106 11.9882 2.05623L23.0772 13.1452L21.5453 14.6771L10.4563 3.58589C8.619 1.75073 5.4145 1.75506 3.588 3.58589C2.6715 4.50239 2.16667 5.72006 2.16667 7.02223C2.16667 8.32439 2.66933 9.5399 3.58583 10.4564L14.6748 21.5476L13.143 23.0794L2.054 11.9882ZM38.8982 28.9641L37.3663 30.4959L49.8333 42.9629V49.8334H42.9628L30.4958 37.3664L28.964 38.8982L42.0658 52.0001H52V42.0659L38.8982 28.9641ZM23.7727 37.9384C24.0868 41.0736 23.0468 44.3192 20.6505 46.7156C16.6552 50.7109 2.8795 51.7249 1.32167 51.8289L0.0888333 51.9091L0.169 50.6762C0.273 49.1184 1.28917 35.3427 5.28233 31.3474C7.67867 28.9511 10.9243 27.9111 14.0595 28.2252L40.2783 2.01289C42.9563 -0.665106 47.3113 -0.665106 49.9893 2.01289C52.6673 4.69089 52.6652 9.04373 49.9893 11.7217L23.7727 37.9384ZM16.5685 28.7821C18.0592 29.3042 19.4588 30.1579 20.6505 31.3474C21.84 32.5369 22.6958 33.9366 23.218 35.4294L48.4575 10.1899C50.2883 8.3569 50.2905 5.37556 48.4575 3.54473C46.6245 1.71389 43.641 1.71173 41.8102 3.54473L16.5685 28.7821ZM19.1187 32.8792C17.4222 31.1849 15.1927 30.3356 12.9653 30.3356C10.738 30.3356 8.5085 31.1849 6.81417 32.8792C4.1795 35.5139 2.84917 44.8782 2.42883 49.5691C7.11967 49.1487 16.484 47.8162 19.1187 45.1837C22.5095 41.7929 22.5073 36.2744 19.1187 32.8792Z" fill="white"/>
</g>
<defs>
<clipPath id="clip0_2648_1946">
<rect width="52" height="52" fill="white"/>
</clipPath>
</defs>
</svg>
